<?xml version="1.0" encoding="UTF-8" standalone="no"?>
<!-- Created with Inkscape (http://www.inkscape.org/) -->

<svg
   width="400"
   height="220"
   viewBox="0 0 105.83334 58.208333"
   version="1.1"
   id="svg5"
   sodipodi:docname="2c-u2-triangoli1.svg"
   inkscape:version="1.1.1 (3bf5ae0d25, 2021-09-20, custom)"
   xmlns:inkscape="http://www.inkscape.org/namespaces/inkscape"
   xmlns:sodipodi="http://sodipodi.sourceforge.net/DTD/sodipodi-0.dtd"
   xmlns="http://www.w3.org/2000/svg"
   xmlns:svg="http://www.w3.org/2000/svg"
   xmlns:ns0="http://www.iki.fi/pav/software/textext/">
  <sodipodi:namedview
     id="namedview1856"
     pagecolor="#ffffff"
     bordercolor="#666666"
     borderopacity="1.0"
     inkscape:pageshadow="2"
     inkscape:pageopacity="0.0"
     inkscape:pagecheckerboard="0"
     showgrid="false"
     inkscape:zoom="2.5595951"
     inkscape:cx="198.66424"
     inkscape:cy="181.08333"
     inkscape:window-width="1886"
     inkscape:window-height="1009"
     inkscape:window-x="17"
     inkscape:window-y="54"
     inkscape:window-maximized="1"
     inkscape:current-layer="svg5"
     inkscape:snap-global="true"
     width="350px">
    <inkscape:grid
       type="xygrid"
       id="grid1362" />
  </sodipodi:namedview>
  <defs
     id="defs2">
    <inkscape:path-effect
       effect="bspline"
       id="path-effect1371"
       is_visible="true"
       lpeversion="1"
       weight="33.333333"
       steps="2"
       helper_size="0"
       apply_no_weight="true"
       apply_with_weight="true"
       only_selected="false" />
    <inkscape:path-effect
       effect="bspline"
       id="path-effect6208"
       is_visible="true"
       lpeversion="1"
       weight="33.333333"
       steps="2"
       helper_size="0"
       apply_no_weight="true"
       apply_with_weight="true"
       only_selected="false" />
    <inkscape:path-effect
       effect="bspline"
       id="path-effect6171"
       is_visible="true"
       lpeversion="1"
       weight="33.333333"
       steps="2"
       helper_size="0"
       apply_no_weight="true"
       apply_with_weight="true"
       only_selected="false" />
    <inkscape:path-effect
       effect="bspline"
       id="path-effect6167"
       is_visible="true"
       lpeversion="1"
       weight="33.333333"
       steps="2"
       helper_size="0"
       apply_no_weight="true"
       apply_with_weight="true"
       only_selected="false" />
    <inkscape:path-effect
       effect="bspline"
       id="path-effect6130"
       is_visible="true"
       lpeversion="1"
       weight="33.333333"
       steps="2"
       helper_size="0"
       apply_no_weight="true"
       apply_with_weight="true"
       only_selected="false" />
    <inkscape:path-effect
       effect="bspline"
       id="path-effect6126"
       is_visible="true"
       lpeversion="1"
       weight="33.333333"
       steps="2"
       helper_size="0"
       apply_no_weight="true"
       apply_with_weight="true"
       only_selected="false" />
    <marker
       style="overflow:visible"
       id="DiamondS"
       refX="0"
       refY="0"
       orient="auto"
       inkscape:stockid="DiamondS"
       inkscape:isstock="true">
      <path
         transform="scale(0.2)"
         style="fill:context-stroke;fill-rule:evenodd;stroke:context-stroke;stroke-width:1pt"
         d="M 0,-7.0710768 -7.0710894,0 0,7.0710589 7.0710462,0 Z"
         id="path3019" />
    </marker>
    <marker
       style="overflow:visible"
       id="DotL"
       refX="0"
       refY="0"
       orient="auto"
       inkscape:stockid="DotL"
       inkscape:isstock="true">
      <path
         transform="matrix(0.8,0,0,0.8,5.92,0.8)"
         style="fill:context-stroke;fill-rule:evenodd;stroke:context-stroke;stroke-width:1pt"
         d="m -2.5,-1 c 0,2.76 -2.24,5 -5,5 -2.76,0 -5,-2.24 -5,-5 0,-2.76 2.24,-5 5,-5 2.76,0 5,2.24 5,5 z"
         id="path2995" />
    </marker>
    <inkscape:path-effect
       effect="bspline"
       id="path-effect1399"
       is_visible="true"
       lpeversion="1"
       weight="33.333333"
       steps="2"
       helper_size="0"
       apply_no_weight="true"
       apply_with_weight="true"
       only_selected="false" />
    <marker
       style="overflow:visible"
       id="marker1387"
       refX="0"
       refY="0"
       orient="auto">
      <path
         transform="matrix(-1.1,0,0,-1.1,-1.1,0)"
         d="M 8.7185878,4.0337352 -2.2072895,0.01601326 8.7185884,-4.0017078 c -1.7454984,2.3720609 -1.7354408,5.6174519 -6e-7,8.035443 z"
         style="fill:#000000;fill-rule:evenodd;stroke:#000000;stroke-width:0.625;stroke-linejoin:round"
         id="path1147" />
    </marker>
    <marker
       style="overflow:visible"
       id="marker2360"
       refX="0"
       refY="0"
       orient="auto">
      <path
         transform="matrix(-0.3,0,0,-0.3,0.69,0)"
         d="M 8.7185878,4.0337352 -2.2072895,0.01601326 8.7185884,-4.0017078 c -1.7454984,2.3720609 -1.7354408,5.6174519 -6e-7,8.035443 z"
         style="fill:#000000;fill-rule:evenodd;stroke:#000000;stroke-width:0.625;stroke-linejoin:round"
         id="path2358" />
    </marker>
    <marker
       style="overflow:visible"
       id="Arrow1Lstart"
       refX="0"
       refY="0"
       orient="auto">
      <path
         transform="matrix(0.8,0,0,0.8,10,0)"
         style="fill:#000000;fill-rule:evenodd;stroke:#000000;stroke-width:1pt"
         d="M 0,0 5,-5 -12.5,0 5,5 Z"
         id="path2070" />
    </marker>
    <marker
       style="overflow:visible"
       id="Arrow2Send"
       refX="0"
       refY="0"
       orient="auto">
      <path
         transform="matrix(-0.3,0,0,-0.3,0.69,0)"
         d="M 8.7185878,4.0337352 -2.2072895,0.01601326 8.7185884,-4.0017078 c -1.7454984,2.3720609 -1.7354408,5.6174519 -6e-7,8.035443 z"
         style="fill:#000000;fill-rule:evenodd;stroke:#000000;stroke-width:0.625;stroke-linejoin:round"
         id="path2103" />
    </marker>
    <marker
       style="overflow:visible"
       id="marker2332"
       refX="0"
       refY="0"
       orient="auto">
      <path
         transform="scale(-0.6)"
         d="M 8.7185878,4.0337352 -2.2072895,0.01601326 8.7185884,-4.0017078 c -1.7454984,2.3720609 -1.7354408,5.6174519 -6e-7,8.035443 z"
         style="fill:#000000;fill-rule:evenodd;stroke:#000000;stroke-width:0.625;stroke-linejoin:round"
         id="path2097" />
    </marker>
    <marker
       style="overflow:visible"
       id="marker9667"
       refX="0"
       refY="0"
       orient="auto">
      <path
         transform="matrix(-0.4,0,0,-0.4,-4,0)"
         style="fill:#000000;fill-rule:evenodd;stroke:#000000;stroke-width:1pt"
         d="M 0,0 5,-5 -12.5,0 5,5 Z"
         id="path9415" />
    </marker>
    <linearGradient
       id="linearGradient7529">
      <stop
         style="stop-color:#00aeff;stop-opacity:1;"
         offset="0"
         id="stop7527" />
    </linearGradient>
    <linearGradient
       id="linearGradient7469">
      <stop
         style="stop-color:#00aeff;stop-opacity:1;"
         offset="0"
         id="stop7467" />
    </linearGradient>
    <marker
       style="overflow:visible"
       id="Arrow2Mend"
       refX="0"
       refY="0"
       orient="auto">
      <path
         transform="scale(-0.6)"
         d="M 8.7185878,4.0337352 -2.2072895,0.01601326 8.7185884,-4.0017078 c -1.7454984,2.3720609 -1.7354408,5.6174519 -6e-7,8.035443 z"
         style="fill:#000000;fill-rule:evenodd;stroke:#000000;stroke-width:0.625;stroke-linejoin:round"
         id="path1141" />
    </marker>
    <marker
       style="overflow:visible"
       id="Arrow1Mend"
       refX="0"
       refY="0"
       orient="auto">
      <path
         transform="matrix(-0.4,0,0,-0.4,-4,0)"
         style="fill:#000000;fill-rule:evenodd;stroke:#000000;stroke-width:1pt"
         d="M 0,0 5,-5 -12.5,0 5,5 Z"
         id="path1300" />
    </marker>
    <marker
       style="overflow:visible"
       id="Arrow2Lend"
       refX="0"
       refY="0"
       orient="auto">
      <path
         transform="matrix(-1.1,0,0,-1.1,-1.1,0)"
         d="M 8.7185878,4.0337352 -2.2072895,0.01601326 8.7185884,-4.0017078 c -1.7454984,2.3720609 -1.7354408,5.6174519 -6e-7,8.035443 z"
         style="fill:#000000;fill-rule:evenodd;stroke:#000000;stroke-width:0.625;stroke-linejoin:round"
         id="path1312" />
    </marker>
    <filter
       style="color-interpolation-filters:sRGB"
       id="filter7803"
       x="-0.051284254"
       y="-0.16195028"
       width="1.1025685"
       height="1.3239005">
      <feGaussianBlur
         stdDeviation="1.6961198"
         id="feGaussianBlur7805" />
    </filter>
    <filter
       style="color-interpolation-filters:sRGB"
       id="filter8913"
       x="-0.071372792"
       y="-0.72562331"
       width="1.1427456"
       height="2.4512467">
      <feGaussianBlur
         stdDeviation="2.3998479"
         id="feGaussianBlur8915" />
    </filter>
  </defs>
  <path
     style="fill:none;stroke:#000000;stroke-width:0.264583px;stroke-linecap:butt;stroke-linejoin:miter;stroke-opacity:1"
     d="M 75.935422,42.333335 H 28.310421 L 49.477088,14.552084 Z"
     id="path1566"
     sodipodi:nodetypes="cccc" />
  <path
     style="fill:none;stroke:#000000;stroke-width:0.264583px;stroke-linecap:butt;stroke-linejoin:miter;stroke-opacity:1"
     d="M 28.310421,42.333334 60.246438,25.92028"
     id="path1756"
     sodipodi:nodetypes="cc" />
  <path
     style="fill:none;stroke:#000000;stroke-width:0.264583px;stroke-linecap:butt;stroke-linejoin:miter;stroke-opacity:1"
     d="M 75.935422,42.333335 35.378923,33.228121"
     id="path1848"
     sodipodi:nodetypes="cc" />
  <g
     transform="matrix(0.443355,0,0,0.443355,49.186614,9.5819062)"
     ns0:version="1.6.0"
     ns0:texconverter="pdflatex"
     ns0:pdfconverter="inkscape"
     ns0:text="$$Q$$"
     ns0:preamble="/home/ivo/.config/inkscape/extensions/textext/default_packages.tex"
     ns0:scale="1.2567548998145173"
     ns0:alignment="middle center"
     ns0:stroke-to-path="0"
     ns0:inkscapeversion="1.1.1"
     ns0:jacobian_sqrt="0.443355"
     id="g2430">
    <defs
       id="id-95dff3e3-d3a9-43ab-afe7-965bb438fa6c">
      <g
         id="id-d78fdbde-d1f2-4a16-af3d-1bd901e3cc8c">
        <symbol
           overflow="visible"
           id="id-ba27f40a-9057-4aa1-85af-d6eaca9cc1af">
          <path
             style="stroke:none"
             d=""
             id="id-f9fa236b-53ab-49b2-b455-2b39adace8cc" />
        </symbol>
        <symbol
           overflow="visible"
           id="id-c404bbaf-f8f9-4e47-ba57-b40c480e1202">
          <path
             style="stroke:none"
             d="M 4.359375,-0.0625 C 5.90625,-0.640625 7.375,-2.421875 7.375,-4.34375 c 0,-1.609375 -1.0625,-2.6875 -2.546875,-2.6875 -2.140625,0 -4.34375,2.265625 -4.34375,4.59375 0,1.65625 1.125,2.65625 2.5625,2.65625 0.25,0 0.578125,-0.046875 0.96875,-0.15625 -0.03125,0.625 -0.03125,0.640625 -0.03125,0.78125 0,0.3125 0,1.09375 0.828125,1.09375 1.171875,0 1.65625,-1.828125 1.65625,-1.9375 0,-0.0625 -0.0625,-0.09375 -0.109375,-0.09375 -0.078125,0 -0.09375,0.046875 -0.125,0.109375 C 6,0.71875 5.421875,0.96875 5.078125,0.96875 c -0.46875,0 -0.609375,-0.265625 -0.71875,-1.03125 z m -1.875,-0.078125 c -0.78125,-0.3125 -1.125,-1.078125 -1.125,-1.984375 0,-0.6875 0.265625,-2.109375 1.015625,-3.171875 C 3.109375,-6.3125 4.046875,-6.78125 4.78125,-6.78125 5.765625,-6.78125 6.5,-6 6.5,-4.671875 c 0,1 -0.515625,3.34375 -2.1875,4.265625 -0.046875,-0.34375 -0.140625,-1.0625 -0.875,-1.0625 -0.53125,0 -1.015625,0.484375 -1.015625,1.015625 0,0.1875 0.0625,0.296875 0.0625,0.3125 z M 3.09375,-0.03125 c -0.140625,0 -0.453125,0 -0.453125,-0.421875 0,-0.40625 0.375,-0.796875 0.796875,-0.796875 0.421875,0 0.609375,0.234375 0.609375,0.84375 0,0.140625 -0.015625,0.15625 -0.109375,0.203125 C 3.671875,-0.09375 3.375,-0.03125 3.09375,-0.03125 Z m 0,0"
             id="id-bfc76d2e-7ce0-4f9c-858f-50add45e545c" />
        </symbol>
      </g>
    </defs>
    <g
       id="id-f2210508-62c6-410e-bb47-2656f299b31e"
       transform="translate(-302.17,-139.689)">
      <g
         style="fill:#000000;fill-opacity:1"
         id="id-ac95a991-0ce3-40b0-8604-d40080174740">
        <g
           transform="translate(301.686,146.72)"
           id="g2662">
          <path
             style="stroke:none"
             d="M 4.359375,-0.0625 C 5.90625,-0.640625 7.375,-2.421875 7.375,-4.34375 c 0,-1.609375 -1.0625,-2.6875 -2.546875,-2.6875 -2.140625,0 -4.34375,2.265625 -4.34375,4.59375 0,1.65625 1.125,2.65625 2.5625,2.65625 0.25,0 0.578125,-0.046875 0.96875,-0.15625 -0.03125,0.625 -0.03125,0.640625 -0.03125,0.78125 0,0.3125 0,1.09375 0.828125,1.09375 1.171875,0 1.65625,-1.828125 1.65625,-1.9375 0,-0.0625 -0.0625,-0.09375 -0.109375,-0.09375 -0.078125,0 -0.09375,0.046875 -0.125,0.109375 C 6,0.71875 5.421875,0.96875 5.078125,0.96875 c -0.46875,0 -0.609375,-0.265625 -0.71875,-1.03125 z m -1.875,-0.078125 c -0.78125,-0.3125 -1.125,-1.078125 -1.125,-1.984375 0,-0.6875 0.265625,-2.109375 1.015625,-3.171875 C 3.109375,-6.3125 4.046875,-6.78125 4.78125,-6.78125 5.765625,-6.78125 6.5,-6 6.5,-4.671875 c 0,1 -0.515625,3.34375 -2.1875,4.265625 -0.046875,-0.34375 -0.140625,-1.0625 -0.875,-1.0625 -0.53125,0 -1.015625,0.484375 -1.015625,1.015625 0,0.1875 0.0625,0.296875 0.0625,0.3125 z M 3.09375,-0.03125 c -0.140625,0 -0.453125,0 -0.453125,-0.421875 0,-0.40625 0.375,-0.796875 0.796875,-0.796875 0.421875,0 0.609375,0.234375 0.609375,0.84375 0,0.140625 -0.015625,0.15625 -0.109375,0.203125 C 3.671875,-0.09375 3.375,-0.03125 3.09375,-0.03125 Z m 0,0"
             id="id-5bbfc735-df52-4ab1-b619-9587a1504eea" />
        </g>
      </g>
    </g>
  </g>
  <g
     transform="matrix(0.443355,0,0,0.443355,23.512437,42.6855)"
     ns0:version="1.6.0"
     ns0:texconverter="pdflatex"
     ns0:pdfconverter="inkscape"
     ns0:text="$$P$$"
     ns0:preamble="/home/ivo/.config/inkscape/extensions/textext/default_packages.tex"
     ns0:scale="1.2567548998145173"
     ns0:alignment="middle center"
     ns0:stroke-to-path="0"
     ns0:inkscapeversion="1.1.1"
     ns0:jacobian_sqrt="0.443355"
     id="g2718">
    <defs
       id="id-e5dcf903-e1e1-4e35-8217-afa914a5545d">
      <g
         id="id-605e593f-a262-493f-8f51-6a19c6f68e7b">
        <symbol
           overflow="visible"
           id="id-b3b1475d-0efc-446d-8dcd-091707ff0b9e">
          <path
             style="stroke:none"
             d=""
             id="id-6fdb0de6-a5bc-409f-a859-9919b0f9d095" />
        </symbol>
        <symbol
           overflow="visible"
           id="id-330743ed-379d-4021-86ce-7c30c3017ca4">
          <path
             style="stroke:none"
             d="M 3.015625,-3.15625 H 4.71875 c 1.40625,0 2.796875,-1.03125 2.796875,-2.140625 0,-0.78125 -0.65625,-1.515625 -1.96875,-1.515625 h -3.21875 c -0.1875,0 -0.296875,0 -0.296875,0.1875 0,0.125 0.078125,0.125 0.28125,0.125 0.125,0 0.3125,0.015625 0.421875,0.015625 0.171875,0.03125 0.21875,0.046875 0.21875,0.171875 0,0.03125 0,0.0625 -0.03125,0.1875 l -1.34375,5.34375 c -0.09375,0.390625 -0.109375,0.46875 -0.90625,0.46875 -0.15625,0 -0.265625,0 -0.265625,0.1875 C 0.40625,0 0.515625,0 0.546875,0 0.828125,0 1.53125,-0.03125 1.8125,-0.03125 c 0.21875,0 0.4375,0.015625 0.640625,0.015625 0.21875,0 0.4375,0.015625 0.640625,0.015625 0.078125,0 0.203125,0 0.203125,-0.203125 0,-0.109375 -0.09375,-0.109375 -0.28125,-0.109375 -0.359375,0 -0.640625,0 -0.640625,-0.171875 0,-0.0625 0.015625,-0.109375 0.03125,-0.171875 z M 3.734375,-6.125 C 3.828125,-6.46875 3.84375,-6.5 4.28125,-6.5 h 0.953125 c 0.828125,0 1.359375,0.265625 1.359375,0.953125 0,0.390625 -0.203125,1.25 -0.59375,1.609375 -0.5,0.453125 -1.09375,0.53125 -1.53125,0.53125 H 3.0625 Z m 0,0"
             id="id-009c1b76-d092-4b7c-a051-aa52e276259e" />
        </symbol>
      </g>
    </defs>
    <g
       id="id-c5899ca8-c495-4c65-96bd-70bddb016a5c"
       transform="translate(-302.14,-139.907)">
      <g
         style="fill:#000000;fill-opacity:1"
         id="id-24271427-ca96-42dc-b488-4cea45504c99">
        <g
           transform="translate(301.734,146.72)"
           id="g2847">
          <path
             style="stroke:none"
             d="M 3.015625,-3.15625 H 4.71875 c 1.40625,0 2.796875,-1.03125 2.796875,-2.140625 0,-0.78125 -0.65625,-1.515625 -1.96875,-1.515625 h -3.21875 c -0.1875,0 -0.296875,0 -0.296875,0.1875 0,0.125 0.078125,0.125 0.28125,0.125 0.125,0 0.3125,0.015625 0.421875,0.015625 0.171875,0.03125 0.21875,0.046875 0.21875,0.171875 0,0.03125 0,0.0625 -0.03125,0.1875 l -1.34375,5.34375 c -0.09375,0.390625 -0.109375,0.46875 -0.90625,0.46875 -0.15625,0 -0.265625,0 -0.265625,0.1875 C 0.40625,0 0.515625,0 0.546875,0 0.828125,0 1.53125,-0.03125 1.8125,-0.03125 c 0.21875,0 0.4375,0.015625 0.640625,0.015625 0.21875,0 0.4375,0.015625 0.640625,0.015625 0.078125,0 0.203125,0 0.203125,-0.203125 0,-0.109375 -0.09375,-0.109375 -0.28125,-0.109375 -0.359375,0 -0.640625,0 -0.640625,-0.171875 0,-0.0625 0.015625,-0.109375 0.03125,-0.171875 z M 3.734375,-6.125 C 3.828125,-6.46875 3.84375,-6.5 4.28125,-6.5 h 0.953125 c 0.828125,0 1.359375,0.265625 1.359375,0.953125 0,0.390625 -0.203125,1.25 -0.59375,1.609375 -0.5,0.453125 -1.09375,0.53125 -1.53125,0.53125 H 3.0625 Z m 0,0"
             id="id-a742819e-4c56-47ea-848b-54997ef24cfe" />
        </g>
      </g>
    </g>
  </g>
  <g
     transform="matrix(0.443355,0,0,0.443355,76.770437,41.8721)"
     ns0:version="1.6.0"
     ns0:texconverter="pdflatex"
     ns0:pdfconverter="inkscape"
     ns0:text="$$R$$"
     ns0:preamble="/home/ivo/.config/inkscape/extensions/textext/default_packages.tex"
     ns0:scale="1.2567548998145173"
     ns0:alignment="middle center"
     ns0:stroke-to-path="0"
     ns0:inkscapeversion="1.1.1"
     ns0:jacobian_sqrt="0.443355"
     id="g2903">
    <defs
       id="id-941104fe-c8d7-4348-ac01-187c0972c2b5">
      <g
         id="id-27a3b870-0e6b-4d2f-9598-ba8faef67810">
        <symbol
           overflow="visible"
           id="id-92a5a665-39ca-432f-a603-d317aeec9ccb">
          <path
             style="stroke:none"
             d=""
             id="id-d1f0308b-043a-4f20-a6db-23c9ddf1f705" />
        </symbol>
        <symbol
           overflow="visible"
           id="id-93d1b878-a133-439d-821d-da759587a1e5">
          <path
             style="stroke:none"
             d="m 3.734375,-6.125 c 0.0625,-0.234375 0.09375,-0.328125 0.28125,-0.359375 C 4.109375,-6.5 4.421875,-6.5 4.625,-6.5 c 0.703125,0 1.8125,0 1.8125,0.984375 0,0.34375 -0.15625,1.03125 -0.546875,1.421875 -0.265625,0.25 -0.78125,0.578125 -1.6875,0.578125 H 3.09375 Z m 1.4375,2.734375 c 1.015625,-0.21875 2.1875,-0.921875 2.1875,-1.921875 0,-0.859375 -0.890625,-1.5 -2.203125,-1.5 H 2.328125 c -0.203125,0 -0.296875,0 -0.296875,0.203125 C 2.03125,-6.5 2.125,-6.5 2.3125,-6.5 c 0.015625,0 0.203125,0 0.375,0.015625 0.1875,0.03125 0.265625,0.03125 0.265625,0.171875 0,0.03125 0,0.0625 -0.03125,0.1875 l -1.34375,5.34375 C 1.484375,-0.390625 1.46875,-0.3125 0.671875,-0.3125 0.5,-0.3125 0.40625,-0.3125 0.40625,-0.109375 0.40625,0 0.53125,0 0.546875,0 c 0.28125,0 0.984375,-0.03125 1.25,-0.03125 0.28125,0 1,0.03125 1.28125,0.03125 0.078125,0 0.1875,0 0.1875,-0.203125 0,-0.109375 -0.078125,-0.109375 -0.28125,-0.109375 -0.359375,0 -0.640625,0 -0.640625,-0.171875 0,-0.0625 0.015625,-0.109375 0.03125,-0.171875 l 0.65625,-2.640625 h 1.1875 c 0.90625,0 1.078125,0.5625 1.078125,0.90625 0,0.140625 -0.078125,0.453125 -0.140625,0.6875 C 5.09375,-1.421875 5,-1.0625 5,-0.859375 5,0.21875 6.203125,0.21875 6.328125,0.21875 c 0.84375,0 1.203125,-1 1.203125,-1.140625 0,-0.125 -0.109375,-0.125 -0.125,-0.125 -0.09375,0 -0.109375,0.0625 -0.125,0.140625 C 7.03125,-0.171875 6.59375,0 6.375,0 6.046875,0 5.96875,-0.21875 5.96875,-0.609375 c 0,-0.3125 0.0625,-0.8125 0.109375,-1.140625 0.015625,-0.140625 0.03125,-0.328125 0.03125,-0.46875 0,-0.765625 -0.671875,-1.078125 -0.9375,-1.171875 z m 0,0"
             id="id-3b9332c6-6bf8-4537-98cc-0c0a5b0bc975" />
        </symbol>
      </g>
    </defs>
    <g
       id="id-9df4f5fa-ad23-4183-a351-04d8202ae788"
       transform="translate(-302.209,-139.907)">
      <g
         style="fill:#000000;fill-opacity:1"
         id="id-656f9c0b-5245-45de-aaca-68df4b723baf">
        <g
           transform="translate(301.803,146.72)"
           id="g3054">
          <path
             style="stroke:none"
             d="m 3.734375,-6.125 c 0.0625,-0.234375 0.09375,-0.328125 0.28125,-0.359375 C 4.109375,-6.5 4.421875,-6.5 4.625,-6.5 c 0.703125,0 1.8125,0 1.8125,0.984375 0,0.34375 -0.15625,1.03125 -0.546875,1.421875 -0.265625,0.25 -0.78125,0.578125 -1.6875,0.578125 H 3.09375 Z m 1.4375,2.734375 c 1.015625,-0.21875 2.1875,-0.921875 2.1875,-1.921875 0,-0.859375 -0.890625,-1.5 -2.203125,-1.5 H 2.328125 c -0.203125,0 -0.296875,0 -0.296875,0.203125 C 2.03125,-6.5 2.125,-6.5 2.3125,-6.5 c 0.015625,0 0.203125,0 0.375,0.015625 0.1875,0.03125 0.265625,0.03125 0.265625,0.171875 0,0.03125 0,0.0625 -0.03125,0.1875 l -1.34375,5.34375 C 1.484375,-0.390625 1.46875,-0.3125 0.671875,-0.3125 0.5,-0.3125 0.40625,-0.3125 0.40625,-0.109375 0.40625,0 0.53125,0 0.546875,0 c 0.28125,0 0.984375,-0.03125 1.25,-0.03125 0.28125,0 1,0.03125 1.28125,0.03125 0.078125,0 0.1875,0 0.1875,-0.203125 0,-0.109375 -0.078125,-0.109375 -0.28125,-0.109375 -0.359375,0 -0.640625,0 -0.640625,-0.171875 0,-0.0625 0.015625,-0.109375 0.03125,-0.171875 l 0.65625,-2.640625 h 1.1875 c 0.90625,0 1.078125,0.5625 1.078125,0.90625 0,0.140625 -0.078125,0.453125 -0.140625,0.6875 C 5.09375,-1.421875 5,-1.0625 5,-0.859375 5,0.21875 6.203125,0.21875 6.328125,0.21875 c 0.84375,0 1.203125,-1 1.203125,-1.140625 0,-0.125 -0.109375,-0.125 -0.125,-0.125 -0.09375,0 -0.109375,0.0625 -0.125,0.140625 C 7.03125,-0.171875 6.59375,0 6.375,0 6.046875,0 5.96875,-0.21875 5.96875,-0.609375 c 0,-0.3125 0.0625,-0.8125 0.109375,-1.140625 0.015625,-0.140625 0.03125,-0.328125 0.03125,-0.46875 0,-0.765625 -0.671875,-1.078125 -0.9375,-1.171875 z m 0,0"
             id="id-0b212ab4-7189-4dba-9f56-925bac44e828" />
        </g>
      </g>
    </g>
  </g>
  <g
     transform="matrix(0.443355,0,0,0.443355,61.655637,21.8922)"
     ns0:version="1.6.0"
     ns0:texconverter="pdflatex"
     ns0:pdfconverter="inkscape"
     ns0:text="$$T$$"
     ns0:preamble="/home/ivo/.config/inkscape/extensions/textext/default_packages.tex"
     ns0:scale="1.2567548998145173"
     ns0:alignment="middle center"
     ns0:stroke-to-path="0"
     ns0:inkscapeversion="1.1.1"
     ns0:jacobian_sqrt="0.443355"
     id="g3110">
    <defs
       id="id-03669df8-557b-4693-a8d2-130bd3eafb0e">
      <g
         id="id-dcf7ffbf-ad63-42ba-809a-0f02e98921d6">
        <symbol
           overflow="visible"
           id="id-cbb9f49e-7904-4d0a-bddb-bfa2858ad3b4">
          <path
             style="stroke:none"
             d=""
             id="id-101b91d0-4776-40fc-a277-7ff442f17c44" />
        </symbol>
        <symbol
           overflow="visible"
           id="id-e7716a33-ea9f-444e-aacb-e2cc26f681be">
          <path
             style="stroke:none"
             d="m 4.25,-6.046875 c 0.078125,-0.28125 0.109375,-0.34375 0.234375,-0.375 0.09375,-0.015625 0.421875,-0.015625 0.625,-0.015625 1.015625,0 1.453125,0.03125 1.453125,0.8125 0,0.15625 -0.03125,0.546875 -0.078125,0.796875 0,0.046875 -0.03125,0.15625 -0.03125,0.1875 0,0.0625 0.03125,0.140625 0.125,0.140625 0.109375,0 0.125,-0.078125 0.15625,-0.234375 L 7,-6.46875 C 7.015625,-6.515625 7.015625,-6.609375 7.015625,-6.640625 7.015625,-6.75 6.921875,-6.75 6.75,-6.75 H 1.21875 c -0.234375,0 -0.25,0.015625 -0.328125,0.203125 l -0.59375,1.75 c 0,0.015625 -0.0625,0.15625 -0.0625,0.1875 0,0.046875 0.0625,0.109375 0.125,0.109375 0.09375,0 0.109375,-0.0625 0.171875,-0.21875 C 1.0625,-6.265625 1.328125,-6.4375 2.796875,-6.4375 H 3.1875 c 0.28125,0 0.28125,0.03125 0.28125,0.125 0,0.046875 -0.03125,0.171875 -0.046875,0.203125 L 2.09375,-0.78125 C 2,-0.421875 1.96875,-0.3125 0.90625,-0.3125 c -0.359375,0 -0.421875,0 -0.421875,0.1875 C 0.484375,0 0.59375,0 0.65625,0 c 0.265625,0 0.546875,-0.015625 0.8125,-0.015625 0.28125,0 0.578125,-0.015625 0.859375,-0.015625 0.28125,0 0.546875,0.015625 0.828125,0.015625 C 3.4375,-0.015625 3.734375,0 4.015625,0 c 0.09375,0 0.21875,0 0.21875,-0.203125 0,-0.109375 -0.078125,-0.109375 -0.34375,-0.109375 -0.234375,0 -0.375,0 -0.625,-0.015625 -0.296875,-0.03125 -0.375,-0.0625 -0.375,-0.21875 0,-0.015625 0,-0.0625 0.046875,-0.203125 z m 0,0"
             id="id-2aca983e-5d1f-4ad5-99b8-4e6282a6e6f1" />
        </symbol>
      </g>
    </defs>
    <g
       id="id-6e35223f-20c4-471f-aa4f-c2e58284cfcb"
       transform="translate(-302.255,-139.97)">
      <g
         style="fill:#000000;fill-opacity:1"
         id="id-b0ba19b1-b454-4b87-aae6-9fef24e49f28">
        <g
           transform="translate(302.021,146.72)"
           id="g3283">
          <path
             style="stroke:none"
             d="m 4.25,-6.046875 c 0.078125,-0.28125 0.109375,-0.34375 0.234375,-0.375 0.09375,-0.015625 0.421875,-0.015625 0.625,-0.015625 1.015625,0 1.453125,0.03125 1.453125,0.8125 0,0.15625 -0.03125,0.546875 -0.078125,0.796875 0,0.046875 -0.03125,0.15625 -0.03125,0.1875 0,0.0625 0.03125,0.140625 0.125,0.140625 0.109375,0 0.125,-0.078125 0.15625,-0.234375 L 7,-6.46875 C 7.015625,-6.515625 7.015625,-6.609375 7.015625,-6.640625 7.015625,-6.75 6.921875,-6.75 6.75,-6.75 H 1.21875 c -0.234375,0 -0.25,0.015625 -0.328125,0.203125 l -0.59375,1.75 c 0,0.015625 -0.0625,0.15625 -0.0625,0.1875 0,0.046875 0.0625,0.109375 0.125,0.109375 0.09375,0 0.109375,-0.0625 0.171875,-0.21875 C 1.0625,-6.265625 1.328125,-6.4375 2.796875,-6.4375 H 3.1875 c 0.28125,0 0.28125,0.03125 0.28125,0.125 0,0.046875 -0.03125,0.171875 -0.046875,0.203125 L 2.09375,-0.78125 C 2,-0.421875 1.96875,-0.3125 0.90625,-0.3125 c -0.359375,0 -0.421875,0 -0.421875,0.1875 C 0.484375,0 0.59375,0 0.65625,0 c 0.265625,0 0.546875,-0.015625 0.8125,-0.015625 0.28125,0 0.578125,-0.015625 0.859375,-0.015625 0.28125,0 0.546875,0.015625 0.828125,0.015625 C 3.4375,-0.015625 3.734375,0 4.015625,0 c 0.09375,0 0.21875,0 0.21875,-0.203125 0,-0.109375 -0.078125,-0.109375 -0.34375,-0.109375 -0.234375,0 -0.375,0 -0.625,-0.015625 -0.296875,-0.03125 -0.375,-0.0625 -0.375,-0.21875 0,-0.015625 0,-0.0625 0.046875,-0.203125 z m 0,0"
             id="id-3b6c5200-30c1-444c-a27d-41d64aecd795" />
        </g>
      </g>
    </g>
  </g>
  <g
     transform="matrix(0.443355,0,0,0.443355,41.824374,36.321428)"
     ns0:version="1.6.0"
     ns0:texconverter="pdflatex"
     ns0:pdfconverter="inkscape"
     ns0:text="$$I$$"
     ns0:preamble="/home/ivo/.config/inkscape/extensions/textext/default_packages.tex"
     ns0:scale="1.2567548998145173"
     ns0:alignment="middle center"
     ns0:stroke-to-path="0"
     ns0:inkscapeversion="1.1.1"
     ns0:jacobian_sqrt="0.443355"
     id="g3339">
    <defs
       id="id-f886d781-e4e0-4905-a4cc-88f7323c1cfc">
      <g
         id="id-bf2c5789-8e16-4557-9a7e-73347993e720">
        <symbol
           overflow="visible"
           id="id-91d1b62a-ee29-45dd-a701-897c51b12313">
          <path
             style="stroke:none"
             d=""
             id="id-5d5dff2f-7587-49fe-917f-9445a98a8096" />
        </symbol>
        <symbol
           overflow="visible"
           id="id-67ef6c57-2656-4db6-a041-a1c60d4269c7">
          <path
             style="stroke:none"
             d="M 3.734375,-6.046875 C 3.8125,-6.40625 3.84375,-6.5 4.640625,-6.5 c 0.234375,0 0.3125,0 0.3125,-0.1875 0,-0.125 -0.109375,-0.125 -0.140625,-0.125 -0.296875,0 -1.03125,0.03125 -1.328125,0.03125 -0.296875,0 -1.015625,-0.03125 -1.328125,-0.03125 -0.0625,0 -0.1875,0 -0.1875,0.203125 C 1.96875,-6.5 2.046875,-6.5 2.25,-6.5 c 0.40625,0 0.6875,0 0.6875,0.1875 0,0.046875 0,0.078125 -0.03125,0.15625 l -1.34375,5.375 c -0.09375,0.375 -0.109375,0.46875 -0.90625,0.46875 -0.234375,0 -0.3125,0 -0.3125,0.203125 C 0.34375,0 0.453125,0 0.484375,0 0.78125,0 1.5,-0.03125 1.796875,-0.03125 2.09375,-0.03125 2.828125,0 3.125,0 c 0.078125,0 0.203125,0 0.203125,-0.1875 0,-0.125 -0.078125,-0.125 -0.296875,-0.125 -0.1875,0 -0.234375,0 -0.421875,-0.015625 -0.21875,-0.015625 -0.25,-0.0625 -0.25,-0.171875 0,-0.078125 0.015625,-0.15625 0.03125,-0.234375 z m 0,0"
             id="id-e0152502-9720-4f9c-87f0-3b29129037c4" />
        </symbol>
      </g>
    </defs>
    <g
       id="id-208104a8-4631-4d9a-9bad-151186f203b9"
       transform="translate(-303.387,-139.907)">
      <g
         style="fill:#000000;fill-opacity:1"
         id="id-72e031ac-0b52-4879-88e9-a496c95e2cb7">
        <g
           transform="translate(303.043,146.72)"
           id="g3534">
          <path
             style="stroke:none"
             d="M 3.734375,-6.046875 C 3.8125,-6.40625 3.84375,-6.5 4.640625,-6.5 c 0.234375,0 0.3125,0 0.3125,-0.1875 0,-0.125 -0.109375,-0.125 -0.140625,-0.125 -0.296875,0 -1.03125,0.03125 -1.328125,0.03125 -0.296875,0 -1.015625,-0.03125 -1.328125,-0.03125 -0.0625,0 -0.1875,0 -0.1875,0.203125 C 1.96875,-6.5 2.046875,-6.5 2.25,-6.5 c 0.40625,0 0.6875,0 0.6875,0.1875 0,0.046875 0,0.078125 -0.03125,0.15625 l -1.34375,5.375 c -0.09375,0.375 -0.109375,0.46875 -0.90625,0.46875 -0.234375,0 -0.3125,0 -0.3125,0.203125 C 0.34375,0 0.453125,0 0.484375,0 0.78125,0 1.5,-0.03125 1.796875,-0.03125 2.09375,-0.03125 2.828125,0 3.125,0 c 0.078125,0 0.203125,0 0.203125,-0.1875 0,-0.125 -0.078125,-0.125 -0.296875,-0.125 -0.1875,0 -0.234375,0 -0.421875,-0.015625 -0.21875,-0.015625 -0.25,-0.0625 -0.25,-0.171875 0,-0.078125 0.015625,-0.15625 0.03125,-0.234375 z m 0,0"
             id="id-ec7bec2f-8ae5-4ccf-8870-d0257cdb1ead" />
        </g>
      </g>
    </g>
  </g>
  <g
     transform="matrix(0.443355,0,0,0.443355,30.976337,29.0247)"
     ns0:version="1.6.0"
     ns0:texconverter="pdflatex"
     ns0:pdfconverter="inkscape"
     ns0:text="$$S$$"
     ns0:preamble="/home/ivo/.config/inkscape/extensions/textext/default_packages.tex"
     ns0:scale="1.2567548998145173"
     ns0:alignment="middle center"
     ns0:stroke-to-path="0"
     ns0:inkscapeversion="1.1.1"
     ns0:jacobian_sqrt="0.443355"
     id="g3590">
    <defs
       id="id-8cfd18b5-29ea-4d6a-81a0-8e2a07000ef4">
      <g
         id="id-5c5788b8-59dd-4b93-b01e-48e50ab2bbce">
        <symbol
           overflow="visible"
           id="id-6f5ce0c3-53dd-4abc-a597-1b4685483ec5">
          <path
             style="stroke:none"
             d=""
             id="id-56bdc33b-bddd-4a30-9791-2dbd3e534621" />
        </symbol>
        <symbol
           overflow="visible"
           id="id-e2440e7b-f2c4-4e65-98c1-30577b3df651">
          <path
             style="stroke:none"
             d="m 6.4375,-6.921875 c 0,-0.03125 -0.03125,-0.109375 -0.125,-0.109375 -0.046875,0 -0.046875,0.015625 -0.171875,0.15625 L 5.65625,-6.3125 c -0.25,-0.46875 -0.765625,-0.71875 -1.421875,-0.71875 -1.265625,0 -2.453125,1.15625 -2.453125,2.359375 0,0.796875 0.515625,1.265625 1.03125,1.40625 l 1.0625,0.28125 c 0.375,0.09375 0.921875,0.25 0.921875,1.0625 0,0.890625 -0.8125,1.828125 -1.796875,1.828125 -0.640625,0 -1.75,-0.21875 -1.75,-1.453125 0,-0.234375 0.0625,-0.484375 0.0625,-0.53125 0.015625,-0.046875 0.015625,-0.0625 0.015625,-0.078125 0,-0.09375 -0.0625,-0.109375 -0.109375,-0.109375 -0.046875,0 -0.078125,0.015625 -0.109375,0.046875 -0.03125,0.03125 -0.59375,2.3125 -0.59375,2.34375 0,0.046875 0.046875,0.09375 0.109375,0.09375 0.046875,0 0.0625,-0.015625 0.1875,-0.15625 L 1.296875,-0.5 c 0.421875,0.578125 1.109375,0.71875 1.6875,0.71875 1.359375,0 2.53125,-1.328125 2.53125,-2.5625 0,-0.6875 -0.34375,-1.03125 -0.484375,-1.171875 C 4.796875,-3.734375 4.640625,-3.78125 3.765625,-4 3.53125,-4.0625 3.1875,-4.171875 3.09375,-4.1875 2.828125,-4.28125 2.484375,-4.5625 2.484375,-5.09375 c 0,-0.8125 0.796875,-1.65625 1.75,-1.65625 0.8125,0 1.421875,0.4375 1.421875,1.546875 0,0.3125 -0.03125,0.5 -0.03125,0.5625 0,0 0,0.09375 0.109375,0.09375 0.109375,0 0.125,-0.03125 0.15625,-0.203125 z m 0,0"
             id="id-0b391343-dec3-4767-8f8a-c59970fefb25" />
        </symbol>
      </g>
    </defs>
    <g
       id="id-c09f22ed-c400-4338-9bfc-f12f39f2ef89"
       transform="translate(-302.798,-139.689)">
      <g
         style="fill:#000000;fill-opacity:1"
         id="id-3d9d2579-1d37-495a-8ae0-525a0e2fa8f8">
        <g
           transform="translate(302.282,146.72)"
           id="g3807">
          <path
             style="stroke:none"
             d="m 6.4375,-6.921875 c 0,-0.03125 -0.03125,-0.109375 -0.125,-0.109375 -0.046875,0 -0.046875,0.015625 -0.171875,0.15625 L 5.65625,-6.3125 c -0.25,-0.46875 -0.765625,-0.71875 -1.421875,-0.71875 -1.265625,0 -2.453125,1.15625 -2.453125,2.359375 0,0.796875 0.515625,1.265625 1.03125,1.40625 l 1.0625,0.28125 c 0.375,0.09375 0.921875,0.25 0.921875,1.0625 0,0.890625 -0.8125,1.828125 -1.796875,1.828125 -0.640625,0 -1.75,-0.21875 -1.75,-1.453125 0,-0.234375 0.0625,-0.484375 0.0625,-0.53125 0.015625,-0.046875 0.015625,-0.0625 0.015625,-0.078125 0,-0.09375 -0.0625,-0.109375 -0.109375,-0.109375 -0.046875,0 -0.078125,0.015625 -0.109375,0.046875 -0.03125,0.03125 -0.59375,2.3125 -0.59375,2.34375 0,0.046875 0.046875,0.09375 0.109375,0.09375 0.046875,0 0.0625,-0.015625 0.1875,-0.15625 L 1.296875,-0.5 c 0.421875,0.578125 1.109375,0.71875 1.6875,0.71875 1.359375,0 2.53125,-1.328125 2.53125,-2.5625 0,-0.6875 -0.34375,-1.03125 -0.484375,-1.171875 C 4.796875,-3.734375 4.640625,-3.78125 3.765625,-4 3.53125,-4.0625 3.1875,-4.171875 3.09375,-4.1875 2.828125,-4.28125 2.484375,-4.5625 2.484375,-5.09375 c 0,-0.8125 0.796875,-1.65625 1.75,-1.65625 0.8125,0 1.421875,0.4375 1.421875,1.546875 0,0.3125 -0.03125,0.5 -0.03125,0.5625 0,0 0,0.09375 0.109375,0.09375 0.109375,0 0.125,-0.03125 0.15625,-0.203125 z m 0,0"
             id="id-adbc8691-e44b-4aec-a633-e7d443a4cd11" />
        </g>
      </g>
    </g>
  </g>
  <path
     style="fill:none;stroke:#000000;stroke-width:0.264583px;stroke-linecap:butt;stroke-linejoin:miter;stroke-opacity:1"
     d="m 49.477087,14.552084 -6.6985,20.283755"
     id="path4112"
     sodipodi:nodetypes="cc" />
  <path
     style="fill:none;stroke:#000000;stroke-width:0.264583px;stroke-linecap:butt;stroke-linejoin:miter;stroke-opacity:1"
     d="m 38.118788,34.727165 1.322917,-1.322916"
     id="path4284"
     sodipodi:nodetypes="cc" />
  <path
     style="fill:none;stroke:#000000;stroke-width:0.264583px;stroke-linecap:butt;stroke-linejoin:miter;stroke-opacity:1"
     d="m 50.312087,37.414843 1.322917,-1.322916"
     id="path4423"
     sodipodi:nodetypes="cc" />
  <path
     style="fill:none;stroke:#000000;stroke-width:0.264583px;stroke-linecap:butt;stroke-linejoin:miter;stroke-opacity:1"
     d="m 53.093868,38.056074 1.322917,-1.322916"
     id="path4425"
     sodipodi:nodetypes="cc" />
  <path
     style="fill:none;stroke:#000000;stroke-width:0.264583px;stroke-linecap:butt;stroke-linejoin:miter;stroke-opacity:1"
     d="M 56.016621,38.755966 57.339538,37.43305"
     id="path4427"
     sodipodi:nodetypes="cc" />
  <path
     style="fill:none;stroke:#000000;stroke-width:0.264583px;stroke-linecap:butt;stroke-linejoin:miter;stroke-opacity:1"
     d="m 58.834574,39.389924 1.322917,-1.322916"
     id="path4429"
     sodipodi:nodetypes="cc" />
  <path
     style="fill:none;stroke:#000000;stroke-width:0.264583px;stroke-linecap:butt;stroke-linejoin:miter;stroke-opacity:1"
     d="m 61.881441,40.008639 1.322917,-1.322916"
     id="path4431"
     sodipodi:nodetypes="cc" />
  <circle
     style="fill:none;fill-opacity:0.236231;stroke:#000000;stroke-width:0.211667;stroke-linecap:round;stroke-miterlimit:4;stroke-dasharray:none;stroke-dashoffset:0;stroke-opacity:1"
     id="path4457"
     cx="35.892315"
     cy="38.452274"
     r="0.72486919" />
  <circle
     style="fill:none;fill-opacity:0.236231;stroke:#000000;stroke-width:0.211667;stroke-linecap:round;stroke-miterlimit:4;stroke-dasharray:none;stroke-dashoffset:0;stroke-opacity:1"
     id="circle4575"
     cx="49.69783"
     cy="31.406733"
     r="0.72486919" />
  <circle
     style="fill:none;fill-opacity:0.236231;stroke:#000000;stroke-width:0.211667;stroke-linecap:round;stroke-miterlimit:4;stroke-dasharray:none;stroke-dashoffset:0;stroke-opacity:1"
     id="circle4577"
     cx="54.105934"
     cy="29.035812"
     r="0.72486919" />
  <path
     style="fill:#679ef6;fill-opacity:0.65315622;stroke:none;stroke-width:0.312549;stroke-linecap:round;stroke-miterlimit:4;stroke-dasharray:none;stroke-dashoffset:0;stroke-opacity:1"
     d="m 154.71197,129.61317 c -3.3306,-0.75577 -6.12782,-1.4381 -6.21603,-1.51629 -0.0882,-0.0782 0.12914,-0.4621 0.48302,-0.85313 0.49561,-0.54765 0.53715,-0.81722 0.18083,-1.17355 -0.35633,-0.35633 -0.71361,-0.2221 -1.55534,0.58433 l -1.09275,1.04692 -5.97944,-1.32162 -5.97945,-1.32161 24.795,-32.544345 c 13.63726,-17.899389 24.86913,-32.470222 24.95972,-32.379629 0.21023,0.210225 -23.08271,70.946304 -23.34457,70.892894 -0.10744,-0.0219 -2.92038,-0.65821 -6.25099,-1.41397 z"
     id="path4655"
     transform="scale(0.26458334)" />
  <path
     style="fill:#ff5700;fill-opacity:0.4422968;stroke:none;stroke-width:0.312549;stroke-linecap:round;stroke-miterlimit:4;stroke-dasharray:none;stroke-dashoffset:0;stroke-opacity:1"
     d="m 162.92315,130.23817 c 0.004,-0.0767 5.49774,-16.72109 12.20896,-36.987507 l 12.20221,-36.848041 17.38556,18.254701 c 9.56206,10.040087 18.38645,19.341651 19.60975,20.670142 l 2.22419,2.415441 -9.61443,4.922374 c -8.86796,4.5402 -9.67681,4.87868 -10.41787,4.35962 -2.08153,-1.45796 -5.31782,0.0701 -5.31782,2.51088 0,1.08701 -0.31694,1.32243 -5.33232,3.96088 -4.66131,2.45218 -5.45025,2.75145 -6.26938,2.37824 -1.25112,-0.57006 -2.94014,-0.54023 -3.76999,0.0666 -0.37122,0.27144 -0.91572,1.19443 -1.21,2.0511 -0.52597,1.53115 -0.70639,1.64602 -10.63198,6.76925 -10.50748,5.42359 -11.078,5.7059 -11.06688,5.47634 z"
     id="path4768"
     transform="scale(0.26458334)" />
  <g
     transform="matrix(0.443355,0,0,0.443355,40.786175,27.479937)"
     ns0:version="1.6.0"
     ns0:texconverter="pdflatex"
     ns0:pdfconverter="inkscape"
     ns0:text="$$x$$"
     ns0:preamble="/home/ivo/.config/inkscape/extensions/textext/default_packages.tex"
     ns0:scale="1.2567548998145173"
     ns0:alignment="middle center"
     ns0:stroke-to-path="0"
     ns0:inkscapeversion="1.1.1"
     ns0:jacobian_sqrt="0.443355"
     id="g6262">
    <defs
       id="id-6a49229d-ee96-42cf-a8f5-e5f91ba783c3">
      <g
         id="id-ef8b29f9-4bda-449c-ae71-a6ceb315c25a">
        <symbol
           overflow="visible"
           id="id-8cccaebd-f3c4-4cf7-bc0a-06761a33af0e">
          <path
             style="stroke:none"
             d=""
             id="id-060693b7-482b-4a1e-a320-a26d134b2c10" />
        </symbol>
        <symbol
           overflow="visible"
           id="id-5a52ff9d-ab72-4175-857a-297bad3baa0d">
          <path
             style="stroke:none"
             d="M 3.328125,-3.015625 C 3.390625,-3.265625 3.625,-4.1875 4.3125,-4.1875 c 0.046875,0 0.296875,0 0.5,0.125 C 4.53125,-4 4.34375,-3.765625 4.34375,-3.515625 c 0,0.15625 0.109375,0.34375 0.375,0.34375 0.21875,0 0.53125,-0.171875 0.53125,-0.578125 0,-0.515625 -0.578125,-0.65625 -0.921875,-0.65625 -0.578125,0 -0.921875,0.53125 -1.046875,0.75 -0.25,-0.65625 -0.78125,-0.75 -1.078125,-0.75 -1.03125,0 -1.609375,1.28125 -1.609375,1.53125 0,0.109375 0.109375,0.109375 0.125,0.109375 0.078125,0 0.109375,-0.03125 0.125,-0.109375 0.34375,-1.0625 1,-1.3125 1.34375,-1.3125 0.1875,0 0.53125,0.09375 0.53125,0.671875 0,0.3125 -0.171875,0.96875 -0.53125,2.375 -0.15625,0.609375 -0.515625,1.03125 -0.953125,1.03125 -0.0625,0 -0.28125,0 -0.5,-0.125 0.25,-0.0625 0.46875,-0.265625 0.46875,-0.546875 0,-0.265625 -0.21875,-0.34375 -0.359375,-0.34375 -0.3125,0 -0.546875,0.25 -0.546875,0.578125 0,0.453125 0.484375,0.65625 0.921875,0.65625 0.671875,0 1.03125,-0.703125 1.046875,-0.75 0.125,0.359375 0.484375,0.75 1.078125,0.75 1.03125,0 1.59375,-1.28125 1.59375,-1.53125 0,-0.109375 -0.078125,-0.109375 -0.109375,-0.109375 -0.09375,0 -0.109375,0.046875 -0.140625,0.109375 -0.328125,1.078125 -1,1.3125 -1.3125,1.3125 -0.390625,0 -0.546875,-0.3125 -0.546875,-0.65625 0,-0.21875 0.046875,-0.4375 0.15625,-0.875 z m 0,0"
             id="id-250ccff9-00fb-401f-918f-794104915483" />
        </symbol>
      </g>
    </defs>
    <g
       id="id-618cec0b-5e6d-4205-a662-bd3c1fa286e3"
       transform="translate(-303.074,-142.314)">
      <g
         style="fill:#000000;fill-opacity:1"
         id="id-92834b42-2ad1-449b-b206-a6bd74345bbc">
        <g
           transform="translate(302.777,146.72)"
           id="g6525">
          <path
             style="stroke:none"
             d="M 3.328125,-3.015625 C 3.390625,-3.265625 3.625,-4.1875 4.3125,-4.1875 c 0.046875,0 0.296875,0 0.5,0.125 C 4.53125,-4 4.34375,-3.765625 4.34375,-3.515625 c 0,0.15625 0.109375,0.34375 0.375,0.34375 0.21875,0 0.53125,-0.171875 0.53125,-0.578125 0,-0.515625 -0.578125,-0.65625 -0.921875,-0.65625 -0.578125,0 -0.921875,0.53125 -1.046875,0.75 -0.25,-0.65625 -0.78125,-0.75 -1.078125,-0.75 -1.03125,0 -1.609375,1.28125 -1.609375,1.53125 0,0.109375 0.109375,0.109375 0.125,0.109375 0.078125,0 0.109375,-0.03125 0.125,-0.109375 0.34375,-1.0625 1,-1.3125 1.34375,-1.3125 0.1875,0 0.53125,0.09375 0.53125,0.671875 0,0.3125 -0.171875,0.96875 -0.53125,2.375 -0.15625,0.609375 -0.515625,1.03125 -0.953125,1.03125 -0.0625,0 -0.28125,0 -0.5,-0.125 0.25,-0.0625 0.46875,-0.265625 0.46875,-0.546875 0,-0.265625 -0.21875,-0.34375 -0.359375,-0.34375 -0.3125,0 -0.546875,0.25 -0.546875,0.578125 0,0.453125 0.484375,0.65625 0.921875,0.65625 0.671875,0 1.03125,-0.703125 1.046875,-0.75 0.125,0.359375 0.484375,0.75 1.078125,0.75 1.03125,0 1.59375,-1.28125 1.59375,-1.53125 0,-0.109375 -0.078125,-0.109375 -0.109375,-0.109375 -0.09375,0 -0.109375,0.046875 -0.140625,0.109375 -0.328125,1.078125 -1,1.3125 -1.3125,1.3125 -0.390625,0 -0.546875,-0.3125 -0.546875,-0.65625 0,-0.21875 0.046875,-0.4375 0.15625,-0.875 z m 0,0"
             id="id-73d57393-c27d-4e35-9ed9-d06a5af377cc" />
        </g>
      </g>
    </g>
  </g>
  <g
     transform="matrix(0.443355 0 0 0.443355 49.6959 23.3685)"
     ns0:version="1.6.0"
     ns0:texconverter="pdflatex"
     ns0:pdfconverter="inkscape"
     ns0:text="$$y$$"
     ns0:preamble="/home/ivo/.config/inkscape/extensions/textext/default_packages.tex"
     ns0:scale="1.2567548998145173"
     ns0:alignment="middle center"
     ns0:stroke-to-path="0"
     ns0:inkscapeversion="1.1.1"
     ns0:jacobian_sqrt="0.443355"
     id="g6581">
    <defs
       id="id-00b6a6f5-c5f5-46ec-b259-4ef82a311022">
      <g
         id="id-dfe4de22-57de-43d4-b31b-4cafccb49a5b">
        <symbol
           overflow="visible"
           id="id-c1663899-27bb-46b6-9f44-e03fb019d8af">
          <path
             style="stroke:none"
             d=""
             id="id-58d52dd2-0349-433c-80fb-fa95926e95f4" />
        </symbol>
        <symbol
           overflow="visible"
           id="id-8b1a36d9-6709-4d8d-825f-7c6493886a30">
          <path
             style="stroke:none"
             d="m 4.84375,-3.796875 c 0.046875,-0.140625 0.046875,-0.15625 0.046875,-0.234375 0,-0.171875 -0.140625,-0.265625 -0.296875,-0.265625 -0.09375,0 -0.25,0.0625 -0.34375,0.203125 -0.015625,0.0625 -0.109375,0.359375 -0.140625,0.546875 -0.078125,0.25 -0.140625,0.53125 -0.203125,0.796875 l -0.453125,1.796875 c -0.03125,0.140625 -0.46875,0.84375 -1.125,0.84375 -0.5,0 -0.609375,-0.4375 -0.609375,-0.8125 C 1.71875,-1.375 1.890625,-2 2.21875,-2.875 2.375,-3.28125 2.421875,-3.390625 2.421875,-3.59375 c 0,-0.4375 -0.3125,-0.8125 -0.8125,-0.8125 -0.953125,0 -1.3125,1.453125 -1.3125,1.53125 0,0.109375 0.09375,0.109375 0.109375,0.109375 0.109375,0 0.109375,-0.03125 0.15625,-0.1875 0.28125,-0.9375 0.671875,-1.234375 1.015625,-1.234375 0.078125,0 0.25,0 0.25,0.3125 0,0.25 -0.109375,0.515625 -0.171875,0.703125 -0.40625,1.0625 -0.578125,1.625 -0.578125,2.09375 0,0.890625 0.625,1.1875 1.21875,1.1875 0.390625,0 0.71875,-0.171875 1,-0.453125 -0.125,0.515625 -0.25,1.015625 -0.640625,1.546875 -0.265625,0.328125 -0.640625,0.625 -1.09375,0.625 -0.140625,0 -0.59375,-0.03125 -0.765625,-0.421875 0.15625,0 0.296875,0 0.421875,-0.125 C 1.328125,1.203125 1.421875,1.0625 1.421875,0.875 1.421875,0.5625 1.15625,0.53125 1.0625,0.53125 0.828125,0.53125 0.5,0.6875 0.5,1.171875 c 0,0.5 0.4375,0.875 1.0625,0.875 1.015625,0 2.046875,-0.90625 2.328125,-2.03125 z m 0,0"
             id="id-87204372-c8f0-4e3b-9c42-37c55152c926" />
        </symbol>
      </g>
    </defs>
    <g
       id="id-6d94c27d-2bac-4795-be9a-76fc8891f513"
       transform="translate(-303.3, -142.314)">
      <g
         style="fill:#000000;fill-opacity:1"
         id="id-e2eea527-ce30-43ba-a3b6-7d9103c0ec71">
        <g
           transform="translate(303.003, 146.72)"
           id="g6866">
          <path
             style="stroke:none"
             d="m 4.84375,-3.796875 c 0.046875,-0.140625 0.046875,-0.15625 0.046875,-0.234375 0,-0.171875 -0.140625,-0.265625 -0.296875,-0.265625 -0.09375,0 -0.25,0.0625 -0.34375,0.203125 -0.015625,0.0625 -0.109375,0.359375 -0.140625,0.546875 -0.078125,0.25 -0.140625,0.53125 -0.203125,0.796875 l -0.453125,1.796875 c -0.03125,0.140625 -0.46875,0.84375 -1.125,0.84375 -0.5,0 -0.609375,-0.4375 -0.609375,-0.8125 C 1.71875,-1.375 1.890625,-2 2.21875,-2.875 2.375,-3.28125 2.421875,-3.390625 2.421875,-3.59375 c 0,-0.4375 -0.3125,-0.8125 -0.8125,-0.8125 -0.953125,0 -1.3125,1.453125 -1.3125,1.53125 0,0.109375 0.09375,0.109375 0.109375,0.109375 0.109375,0 0.109375,-0.03125 0.15625,-0.1875 0.28125,-0.9375 0.671875,-1.234375 1.015625,-1.234375 0.078125,0 0.25,0 0.25,0.3125 0,0.25 -0.109375,0.515625 -0.171875,0.703125 -0.40625,1.0625 -0.578125,1.625 -0.578125,2.09375 0,0.890625 0.625,1.1875 1.21875,1.1875 0.390625,0 0.71875,-0.171875 1,-0.453125 -0.125,0.515625 -0.25,1.015625 -0.640625,1.546875 -0.265625,0.328125 -0.640625,0.625 -1.09375,0.625 -0.140625,0 -0.59375,-0.03125 -0.765625,-0.421875 0.15625,0 0.296875,0 0.421875,-0.125 C 1.328125,1.203125 1.421875,1.0625 1.421875,0.875 1.421875,0.5625 1.15625,0.53125 1.0625,0.53125 0.828125,0.53125 0.5,0.6875 0.5,1.171875 c 0,0.5 0.4375,0.875 1.0625,0.875 1.015625,0 2.046875,-0.90625 2.328125,-2.03125 z m 0,0"
             id="id-d3607666-bfe8-4b6f-9dba-583c8bb88340" />
        </g>
      </g>
    </g>
  </g>
</svg>
