<?xml version="1.0" encoding="UTF-8" standalone="no"?>
<!-- Created with Inkscape (http://www.inkscape.org/) -->

<svg
   width="243.69647"
   height="210"
   viewBox="0 0 64.478029 55.562499"
   version="1.1"
   id="svg5"
   sodipodi:docname="2c-u2-triangoli1.svg"
   inkscape:version="1.1.2 (0a00cf5339, 2022-02-04)"
   xmlns:inkscape="http://www.inkscape.org/namespaces/inkscape"
   xmlns:sodipodi="http://sodipodi.sourceforge.net/DTD/sodipodi-0.dtd"
   xmlns="http://www.w3.org/2000/svg"
   xmlns:svg="http://www.w3.org/2000/svg"
   xmlns:ns0="http://www.iki.fi/pav/software/textext/">
  <sodipodi:namedview
     id="namedview1856"
     pagecolor="#ffffff"
     bordercolor="#666666"
     borderopacity="1.0"
     inkscape:pageshadow="2"
     inkscape:pageopacity="0.0"
     inkscape:pagecheckerboard="0"
     showgrid="true"
     inkscape:zoom="1.8099071"
     inkscape:cx="143.93004"
     inkscape:cy="108.56911"
     inkscape:window-width="1886"
     inkscape:window-height="1009"
     inkscape:window-x="17"
     inkscape:window-y="54"
     inkscape:window-maximized="1"
     inkscape:current-layer="svg5"
     inkscape:snap-global="false"
     width="350px"
     fit-margin-top="0"
     fit-margin-left="0"
     fit-margin-right="0"
     fit-margin-bottom="0">
    <inkscape:grid
       type="xygrid"
       id="grid1362"
       originx="-12.195265"
       originy="-6.5382423" />
  </sodipodi:namedview>
  <defs
     id="defs2">
    <inkscape:path-effect
       effect="bspline"
       id="path-effect4159"
       is_visible="true"
       lpeversion="1"
       weight="33.333333"
       steps="2"
       helper_size="0"
       apply_no_weight="true"
       apply_with_weight="true"
       only_selected="false" />
    <inkscape:path-effect
       effect="bspline"
       id="path-effect3936"
       is_visible="true"
       lpeversion="1"
       weight="33.333333"
       steps="2"
       helper_size="0"
       apply_no_weight="true"
       apply_with_weight="true"
       only_selected="false" />
    <inkscape:path-effect
       effect="bspline"
       id="path-effect2084"
       is_visible="true"
       lpeversion="1"
       weight="33.333333"
       steps="2"
       helper_size="0"
       apply_no_weight="true"
       apply_with_weight="true"
       only_selected="false" />
    <inkscape:path-effect
       effect="bspline"
       id="path-effect1899"
       is_visible="true"
       lpeversion="1"
       weight="33.333333"
       steps="2"
       helper_size="0"
       apply_no_weight="true"
       apply_with_weight="true"
       only_selected="false" />
    <inkscape:path-effect
       effect="bspline"
       id="path-effect1371"
       is_visible="true"
       lpeversion="1"
       weight="33.333333"
       steps="2"
       helper_size="0"
       apply_no_weight="true"
       apply_with_weight="true"
       only_selected="false" />
    <inkscape:path-effect
       effect="bspline"
       id="path-effect6208"
       is_visible="true"
       lpeversion="1"
       weight="33.333333"
       steps="2"
       helper_size="0"
       apply_no_weight="true"
       apply_with_weight="true"
       only_selected="false" />
    <inkscape:path-effect
       effect="bspline"
       id="path-effect6171"
       is_visible="true"
       lpeversion="1"
       weight="33.333333"
       steps="2"
       helper_size="0"
       apply_no_weight="true"
       apply_with_weight="true"
       only_selected="false" />
    <inkscape:path-effect
       effect="bspline"
       id="path-effect6167"
       is_visible="true"
       lpeversion="1"
       weight="33.333333"
       steps="2"
       helper_size="0"
       apply_no_weight="true"
       apply_with_weight="true"
       only_selected="false" />
    <inkscape:path-effect
       effect="bspline"
       id="path-effect6130"
       is_visible="true"
       lpeversion="1"
       weight="33.333333"
       steps="2"
       helper_size="0"
       apply_no_weight="true"
       apply_with_weight="true"
       only_selected="false" />
    <inkscape:path-effect
       effect="bspline"
       id="path-effect6126"
       is_visible="true"
       lpeversion="1"
       weight="33.333333"
       steps="2"
       helper_size="0"
       apply_no_weight="true"
       apply_with_weight="true"
       only_selected="false" />
    <marker
       style="overflow:visible"
       id="DiamondS"
       refX="0"
       refY="0"
       orient="auto"
       inkscape:stockid="DiamondS"
       inkscape:isstock="true">
      <path
         transform="scale(0.2)"
         style="fill:context-stroke;fill-rule:evenodd;stroke:context-stroke;stroke-width:1pt"
         d="M 0,-7.0710768 -7.0710894,0 0,7.0710589 7.0710462,0 Z"
         id="path3019" />
    </marker>
    <marker
       style="overflow:visible"
       id="DotL"
       refX="0"
       refY="0"
       orient="auto"
       inkscape:stockid="DotL"
       inkscape:isstock="true">
      <path
         transform="matrix(0.8,0,0,0.8,5.92,0.8)"
         style="fill:context-stroke;fill-rule:evenodd;stroke:context-stroke;stroke-width:1pt"
         d="m -2.5,-1 c 0,2.76 -2.24,5 -5,5 -2.76,0 -5,-2.24 -5,-5 0,-2.76 2.24,-5 5,-5 2.76,0 5,2.24 5,5 z"
         id="path2995" />
    </marker>
    <inkscape:path-effect
       effect="bspline"
       id="path-effect1399"
       is_visible="true"
       lpeversion="1"
       weight="33.333333"
       steps="2"
       helper_size="0"
       apply_no_weight="true"
       apply_with_weight="true"
       only_selected="false" />
    <marker
       style="overflow:visible"
       id="marker1387"
       refX="0"
       refY="0"
       orient="auto">
      <path
         transform="matrix(-1.1,0,0,-1.1,-1.1,0)"
         d="M 8.7185878,4.0337352 -2.2072895,0.01601326 8.7185884,-4.0017078 c -1.7454984,2.3720609 -1.7354408,5.6174519 -6e-7,8.035443 z"
         style="fill:#000000;fill-rule:evenodd;stroke:#000000;stroke-width:0.625;stroke-linejoin:round"
         id="path1147" />
    </marker>
    <marker
       style="overflow:visible"
       id="marker2360"
       refX="0"
       refY="0"
       orient="auto">
      <path
         transform="matrix(-0.3,0,0,-0.3,0.69,0)"
         d="M 8.7185878,4.0337352 -2.2072895,0.01601326 8.7185884,-4.0017078 c -1.7454984,2.3720609 -1.7354408,5.6174519 -6e-7,8.035443 z"
         style="fill:#000000;fill-rule:evenodd;stroke:#000000;stroke-width:0.625;stroke-linejoin:round"
         id="path2358" />
    </marker>
    <marker
       style="overflow:visible"
       id="Arrow1Lstart"
       refX="0"
       refY="0"
       orient="auto">
      <path
         transform="matrix(0.8,0,0,0.8,10,0)"
         style="fill:#000000;fill-rule:evenodd;stroke:#000000;stroke-width:1pt"
         d="M 0,0 5,-5 -12.5,0 5,5 Z"
         id="path2070" />
    </marker>
    <marker
       style="overflow:visible"
       id="Arrow2Send"
       refX="0"
       refY="0"
       orient="auto">
      <path
         transform="matrix(-0.3,0,0,-0.3,0.69,0)"
         d="M 8.7185878,4.0337352 -2.2072895,0.01601326 8.7185884,-4.0017078 c -1.7454984,2.3720609 -1.7354408,5.6174519 -6e-7,8.035443 z"
         style="fill:#000000;fill-rule:evenodd;stroke:#000000;stroke-width:0.625;stroke-linejoin:round"
         id="path2103" />
    </marker>
    <marker
       style="overflow:visible"
       id="marker2332"
       refX="0"
       refY="0"
       orient="auto">
      <path
         transform="scale(-0.6)"
         d="M 8.7185878,4.0337352 -2.2072895,0.01601326 8.7185884,-4.0017078 c -1.7454984,2.3720609 -1.7354408,5.6174519 -6e-7,8.035443 z"
         style="fill:#000000;fill-rule:evenodd;stroke:#000000;stroke-width:0.625;stroke-linejoin:round"
         id="path2097" />
    </marker>
    <marker
       style="overflow:visible"
       id="marker9667"
       refX="0"
       refY="0"
       orient="auto">
      <path
         transform="matrix(-0.4,0,0,-0.4,-4,0)"
         style="fill:#000000;fill-rule:evenodd;stroke:#000000;stroke-width:1pt"
         d="M 0,0 5,-5 -12.5,0 5,5 Z"
         id="path9415" />
    </marker>
    <linearGradient
       id="linearGradient7529">
      <stop
         style="stop-color:#00aeff;stop-opacity:1;"
         offset="0"
         id="stop7527" />
    </linearGradient>
    <linearGradient
       id="linearGradient7469">
      <stop
         style="stop-color:#00aeff;stop-opacity:1;"
         offset="0"
         id="stop7467" />
    </linearGradient>
    <marker
       style="overflow:visible"
       id="Arrow2Mend"
       refX="0"
       refY="0"
       orient="auto">
      <path
         transform="scale(-0.6)"
         d="M 8.7185878,4.0337352 -2.2072895,0.01601326 8.7185884,-4.0017078 c -1.7454984,2.3720609 -1.7354408,5.6174519 -6e-7,8.035443 z"
         style="fill:#000000;fill-rule:evenodd;stroke:#000000;stroke-width:0.625;stroke-linejoin:round"
         id="path1141" />
    </marker>
    <marker
       style="overflow:visible"
       id="Arrow1Mend"
       refX="0"
       refY="0"
       orient="auto">
      <path
         transform="matrix(-0.4,0,0,-0.4,-4,0)"
         style="fill:#000000;fill-rule:evenodd;stroke:#000000;stroke-width:1pt"
         d="M 0,0 5,-5 -12.5,0 5,5 Z"
         id="path1300" />
    </marker>
    <marker
       style="overflow:visible"
       id="Arrow2Lend"
       refX="0"
       refY="0"
       orient="auto">
      <path
         transform="matrix(-1.1,0,0,-1.1,-1.1,0)"
         d="M 8.7185878,4.0337352 -2.2072895,0.01601326 8.7185884,-4.0017078 c -1.7454984,2.3720609 -1.7354408,5.6174519 -6e-7,8.035443 z"
         style="fill:#000000;fill-rule:evenodd;stroke:#000000;stroke-width:0.625;stroke-linejoin:round"
         id="path1312" />
    </marker>
    <filter
       style="color-interpolation-filters:sRGB"
       id="filter7803"
       x="-0.051284254"
       y="-0.16195028"
       width="1.1025685"
       height="1.3239005">
      <feGaussianBlur
         stdDeviation="1.6961198"
         id="feGaussianBlur7805" />
    </filter>
    <filter
       style="color-interpolation-filters:sRGB"
       id="filter8913"
       x="-0.071372792"
       y="-0.72562331"
       width="1.1427456"
       height="2.4512467">
      <feGaussianBlur
         stdDeviation="2.3998479"
         id="feGaussianBlur8915" />
    </filter>
  </defs>
  <path
     style="fill:none;stroke:#000000;stroke-width:0.264583;stroke-linecap:butt;stroke-linejoin:miter;stroke-miterlimit:4;stroke-dasharray:none;stroke-opacity:1;marker-end:url(#marker1387)"
     d="m 38.075571,54.58051 c 0,-16.227513 0,-32.455292 0,-48.6833356"
     id="path1897"
     inkscape:path-effect="#path-effect1899"
     inkscape:original-d="m 38.075571,54.58051 c 2.65e-4,-16.227513 2.65e-4,-32.455292 0,-48.6833356"
     sodipodi:nodetypes="cc" />
  <path
     style="fill:none;stroke:#000000;stroke-width:0.264583;stroke-linecap:butt;stroke-linejoin:miter;stroke-miterlimit:4;stroke-dasharray:none;stroke-opacity:1;marker-end:url(#marker1387)"
     d="m 14.263071,32.090925 c 15.874735,0 31.749736,1e-6 47.625001,1e-6"
     id="path2080"
     inkscape:path-effect="#path-effect2084"
     inkscape:original-d="m 14.263071,32.090925 c 15.874735,2.65e-4 31.749736,2.65e-4 47.625001,1e-6"
     sodipodi:nodetypes="cc" />
  <g
     transform="matrix(0.426861,0,0,0.426861,-5.3357625e-5,13.501944)"
     ns0:version="1.8.0"
     ns0:texconverter="pdflatex"
     ns0:pdfconverter="inkscape"
     ns0:text="$$x^2 + 1 = 0$$"
     ns0:preamble="/home/ivo/.config/inkscape/extensions/textext/default_packages.tex"
     ns0:scale="1.21"
     ns0:alignment="middle center"
     ns0:stroke-to-path="0"
     ns0:inkscapeversion="1.1.2"
     ns0:jacobian_sqrt="0.426861"
     id="g1654">
    <defs
       id="id-e0bb10e7-3ce3-4ab9-a3d3-960135caa39d">
      <g
         id="id-b2bae3aa-a9f7-4b8e-8dcc-235e70517d1a">
        <symbol
           overflow="visible"
           id="id-f139c6ea-527f-4431-afd2-2b05ee95221a">
          <path
             style="stroke:none"
             d=""
             id="id-9ef25a02-25e5-4764-84fb-fde8b004c480" />
        </symbol>
        <symbol
           overflow="visible"
           id="id-8ffba2c7-ed02-4bcf-8b79-9f92c0b1acc0">
          <path
             style="stroke:none"
             d="m 5.671875,-4.875 c -0.390625,0.0625 -0.53125,0.359375 -0.53125,0.578125 0,0.296875 0.21875,0.390625 0.390625,0.390625 0.359375,0 0.609375,-0.3125 0.609375,-0.640625 0,-0.5 -0.578125,-0.71875 -1.078125,-0.71875 -0.71875,0 -1.125,0.71875 -1.234375,0.9375 -0.28125,-0.890625 -1.015625,-0.9375 -1.234375,-0.9375 -1.21875,0 -1.859375,1.5625 -1.859375,1.828125 0,0.046875 0.046875,0.109375 0.125,0.109375 0.09375,0 0.125,-0.078125 0.140625,-0.125 0.40625,-1.328125 1.21875,-1.578125 1.5625,-1.578125 0.53125,0 0.640625,0.5 0.640625,0.78125 0,0.265625 -0.078125,0.546875 -0.21875,1.125 L 2.578125,-1.5 c -0.171875,0.71875 -0.515625,1.375 -1.15625,1.375 -0.0625,0 -0.359375,0 -0.609375,-0.15625 C 1.25,-0.359375 1.34375,-0.71875 1.34375,-0.859375 1.34375,-1.09375 1.15625,-1.25 0.9375,-1.25 c -0.296875,0 -0.609375,0.265625 -0.609375,0.640625 0,0.5 0.5625,0.734375 1.078125,0.734375 0.578125,0 0.984375,-0.453125 1.234375,-0.953125 C 2.828125,-0.125 3.4375,0.125 3.875,0.125 5.09375,0.125 5.734375,-1.453125 5.734375,-1.703125 5.734375,-1.765625 5.6875,-1.8125 5.625,-1.8125 5.515625,-1.8125 5.5,-1.75 5.46875,-1.65625 5.140625,-0.609375 4.453125,-0.125 3.90625,-0.125 3.484375,-0.125 3.265625,-0.4375 3.265625,-0.921875 3.265625,-1.1875 3.3125,-1.375 3.5,-2.15625 L 3.921875,-3.796875 C 4.09375,-4.5 4.5,-5.03125 5.0625,-5.03125 c 0.015625,0 0.359375,0 0.609375,0.15625 z m 0,0"
             id="id-594a272d-e768-4cc4-a935-d8d7689d5a15" />
        </symbol>
        <symbol
           overflow="visible"
           id="id-97e9087f-cafe-41ef-b8e8-4dddd7e6179c">
          <path
             style="stroke:none"
             d=""
             id="id-01bc337a-05f3-49be-bbb1-614f39ce45dd" />
        </symbol>
        <symbol
           overflow="visible"
           id="id-77271296-8d84-4f53-87a2-173c0ccc565a">
          <path
             style="stroke:none"
             d="m 2.25,-1.625 c 0.125,-0.125 0.453125,-0.390625 0.59375,-0.5 0.484375,-0.453125 0.953125,-0.890625 0.953125,-1.609375 0,-0.953125 -0.796875,-1.5625 -1.78125,-1.5625 -0.96875,0 -1.59375,0.71875 -1.59375,1.4375 0,0.390625 0.3125,0.4375 0.421875,0.4375 0.171875,0 0.421875,-0.109375 0.421875,-0.421875 0,-0.40625 -0.40625,-0.40625 -0.5,-0.40625 C 1,-4.84375 1.53125,-5.03125 1.921875,-5.03125 c 0.734375,0 1.125,0.625 1.125,1.296875 0,0.828125 -0.578125,1.4375 -1.53125,2.390625 l -1,1.046875 C 0.421875,-0.21875 0.421875,-0.203125 0.421875,0 H 3.5625 l 0.234375,-1.421875 h -0.25 C 3.53125,-1.265625 3.46875,-0.875 3.375,-0.71875 c -0.046875,0.0625 -0.65625,0.0625 -0.78125,0.0625 H 1.171875 Z m 0,0"
             id="id-ebe07ae1-742d-4014-b39c-befbd61a41db" />
        </symbol>
        <symbol
           overflow="visible"
           id="id-ac9ed32e-3c89-401c-9011-fdd0a6d676f8">
          <path
             style="stroke:none"
             d=""
             id="id-992b8c88-403b-40df-b0a6-4d8622d02755" />
        </symbol>
        <symbol
           overflow="visible"
           id="id-735b51a6-d61c-4274-9b20-bd89a0bf6f83">
          <path
             style="stroke:none"
             d="M 4.765625,-2.765625 H 8.0625 c 0.171875,0 0.390625,0 0.390625,-0.203125 0,-0.234375 -0.203125,-0.234375 -0.390625,-0.234375 H 4.765625 V -6.5 c 0,-0.171875 0,-0.390625 -0.21875,-0.390625 -0.21875,0 -0.21875,0.203125 -0.21875,0.390625 v 3.296875 H 1.03125 c -0.171875,0 -0.390625,0 -0.390625,0.21875 0,0.21875 0.203125,0.21875 0.390625,0.21875 H 4.328125 V 0.53125 c 0,0.171875 0,0.390625 0.21875,0.390625 0.21875,0 0.21875,-0.203125 0.21875,-0.390625 z m 0,0"
             id="id-db0a2253-b73c-4fa5-b627-86b9b270d8de" />
        </symbol>
        <symbol
           overflow="visible"
           id="id-f84c8669-c7ca-41cb-a6e3-dbc4dc90dcf5">
          <path
             style="stroke:none"
             d="m 3.4375,-7.65625 c 0,-0.28125 0,-0.296875 -0.234375,-0.296875 C 2.921875,-7.625 2.3125,-7.1875 1.09375,-7.1875 v 0.34375 c 0.265625,0 0.859375,0 1.53125,-0.296875 v 6.21875 c 0,0.4375 -0.046875,0.578125 -1.09375,0.578125 h -0.375 V 0 c 0.328125,-0.03125 1.484375,-0.03125 1.875,-0.03125 0.40625,0 1.546875,0 1.875,0.03125 v -0.34375 h -0.375 c -1.046875,0 -1.09375,-0.140625 -1.09375,-0.578125 z m 0,0"
             id="id-2a9240b4-8579-45b1-abcf-2d0c6c3830a2" />
        </symbol>
        <symbol
           overflow="visible"
           id="id-11083f05-9826-4254-8f78-ff44cb68c70c">
          <path
             style="stroke:none"
             d="m 8.0625,-3.875 c 0.171875,0 0.390625,0 0.390625,-0.21875 C 8.453125,-4.3125 8.25,-4.3125 8.0625,-4.3125 H 1.03125 c -0.171875,0 -0.390625,0 -0.390625,0.21875 0,0.21875 0.203125,0.21875 0.390625,0.21875 z m 0,2.21875 c 0.171875,0 0.390625,0 0.390625,-0.203125 C 8.453125,-2.09375 8.25,-2.09375 8.0625,-2.09375 H 1.03125 c -0.171875,0 -0.390625,0 -0.390625,0.21875 0,0.21875 0.203125,0.21875 0.390625,0.21875 z m 0,0"
             id="id-762482df-5591-4f61-8531-00552965ea2b" />
        </symbol>
        <symbol
           overflow="visible"
           id="id-2b718e7d-c4dd-4174-a1a7-4b8019bed131">
          <path
             style="stroke:none"
             d="m 5.359375,-3.828125 c 0,-0.984375 -0.0625,-1.953125 -0.5,-2.859375 -0.484375,-1 -1.34375,-1.265625 -1.9375,-1.265625 -0.6875,0 -1.53125,0.34375 -1.984375,1.34375 -0.328125,0.75 -0.453125,1.5 -0.453125,2.78125 0,1.15625 0.09375,2.03125 0.515625,2.890625 0.46875,0.90625 1.296875,1.1875 1.921875,1.1875 1.03125,0 1.625,-0.625 1.984375,-1.3125 0.421875,-0.890625 0.453125,-2.0625 0.453125,-2.765625 z m -2.4375,3.84375 C 2.53125,0.015625 1.75,-0.203125 1.53125,-1.5 c -0.125,-0.71875 -0.125,-1.625 -0.125,-2.46875 0,-0.984375 0,-1.859375 0.1875,-2.5625 0.203125,-0.8125 0.8125,-1.171875 1.328125,-1.171875 0.453125,0 1.140625,0.265625 1.375,1.296875 0.15625,0.6875 0.15625,1.625 0.15625,2.4375 0,0.796875 0,1.703125 -0.140625,2.4375 -0.21875,1.3125 -0.984375,1.546875 -1.390625,1.546875 z m 0,0"
             id="id-85a910cf-b734-4914-8cca-c7b684b9f698" />
        </symbol>
      </g>
    </defs>
    <g
       id="id-e7ed73fa-28c5-4991-82c3-a919bf7d0101"
       transform="translate(-278.826,-141.966)">
      <g
         style="fill:#000000;fill-opacity:1"
         id="id-a0f6fa3c-0c87-4e29-bec6-d1447acb9bdc">
        <g
           transform="translate(278.498,152.199)"
           id="g2243">
          <path
             style="stroke:none"
             d="m 5.671875,-4.875 c -0.390625,0.0625 -0.53125,0.359375 -0.53125,0.578125 0,0.296875 0.21875,0.390625 0.390625,0.390625 0.359375,0 0.609375,-0.3125 0.609375,-0.640625 0,-0.5 -0.578125,-0.71875 -1.078125,-0.71875 -0.71875,0 -1.125,0.71875 -1.234375,0.9375 -0.28125,-0.890625 -1.015625,-0.9375 -1.234375,-0.9375 -1.21875,0 -1.859375,1.5625 -1.859375,1.828125 0,0.046875 0.046875,0.109375 0.125,0.109375 0.09375,0 0.125,-0.078125 0.140625,-0.125 0.40625,-1.328125 1.21875,-1.578125 1.5625,-1.578125 0.53125,0 0.640625,0.5 0.640625,0.78125 0,0.265625 -0.078125,0.546875 -0.21875,1.125 L 2.578125,-1.5 c -0.171875,0.71875 -0.515625,1.375 -1.15625,1.375 -0.0625,0 -0.359375,0 -0.609375,-0.15625 C 1.25,-0.359375 1.34375,-0.71875 1.34375,-0.859375 1.34375,-1.09375 1.15625,-1.25 0.9375,-1.25 c -0.296875,0 -0.609375,0.265625 -0.609375,0.640625 0,0.5 0.5625,0.734375 1.078125,0.734375 0.578125,0 0.984375,-0.453125 1.234375,-0.953125 C 2.828125,-0.125 3.4375,0.125 3.875,0.125 5.09375,0.125 5.734375,-1.453125 5.734375,-1.703125 5.734375,-1.765625 5.6875,-1.8125 5.625,-1.8125 5.515625,-1.8125 5.5,-1.75 5.46875,-1.65625 5.140625,-0.609375 4.453125,-0.125 3.90625,-0.125 3.484375,-0.125 3.265625,-0.4375 3.265625,-0.921875 3.265625,-1.1875 3.3125,-1.375 3.5,-2.15625 L 3.921875,-3.796875 C 4.09375,-4.5 4.5,-5.03125 5.0625,-5.03125 c 0.015625,0 0.359375,0 0.609375,0.15625 z m 0,0"
             id="id-b52c30d5-d791-4f20-9cff-30ae6ce5f8be" />
        </g>
      </g>
      <g
         style="fill:#000000;fill-opacity:1"
         id="id-f9211e04-c73a-4ee5-9603-6e1270b476f9">
        <g
           transform="translate(285.151,147.263)"
           id="g2247">
          <path
             style="stroke:none"
             d="m 2.25,-1.625 c 0.125,-0.125 0.453125,-0.390625 0.59375,-0.5 0.484375,-0.453125 0.953125,-0.890625 0.953125,-1.609375 0,-0.953125 -0.796875,-1.5625 -1.78125,-1.5625 -0.96875,0 -1.59375,0.71875 -1.59375,1.4375 0,0.390625 0.3125,0.4375 0.421875,0.4375 0.171875,0 0.421875,-0.109375 0.421875,-0.421875 0,-0.40625 -0.40625,-0.40625 -0.5,-0.40625 C 1,-4.84375 1.53125,-5.03125 1.921875,-5.03125 c 0.734375,0 1.125,0.625 1.125,1.296875 0,0.828125 -0.578125,1.4375 -1.53125,2.390625 l -1,1.046875 C 0.421875,-0.21875 0.421875,-0.203125 0.421875,0 H 3.5625 l 0.234375,-1.421875 h -0.25 C 3.53125,-1.265625 3.46875,-0.875 3.375,-0.71875 c -0.046875,0.0625 -0.65625,0.0625 -0.78125,0.0625 H 1.171875 Z m 0,0"
             id="id-5d56c767-df6e-4c55-83f5-b92af478fcb0" />
        </g>
      </g>
      <g
         style="fill:#000000;fill-opacity:1"
         id="id-c675b361-741b-4abf-ac36-b6eb4d71ff6e">
        <g
           transform="translate(292.539,152.199)"
           id="g2251">
          <path
             style="stroke:none"
             d="M 4.765625,-2.765625 H 8.0625 c 0.171875,0 0.390625,0 0.390625,-0.203125 0,-0.234375 -0.203125,-0.234375 -0.390625,-0.234375 H 4.765625 V -6.5 c 0,-0.171875 0,-0.390625 -0.21875,-0.390625 -0.21875,0 -0.21875,0.203125 -0.21875,0.390625 v 3.296875 H 1.03125 c -0.171875,0 -0.390625,0 -0.390625,0.21875 0,0.21875 0.203125,0.21875 0.390625,0.21875 H 4.328125 V 0.53125 c 0,0.171875 0,0.390625 0.21875,0.390625 0.21875,0 0.21875,-0.203125 0.21875,-0.390625 z m 0,0"
             id="id-20a772f3-2034-46aa-be5f-1421cde66e55" />
        </g>
      </g>
      <g
         style="fill:#000000;fill-opacity:1"
         id="id-14a8ce4f-57b8-4e17-8af2-2dff9a7b4e70">
        <g
           transform="translate(304.298,152.199)"
           id="g2255">
          <path
             style="stroke:none"
             d="m 3.4375,-7.65625 c 0,-0.28125 0,-0.296875 -0.234375,-0.296875 C 2.921875,-7.625 2.3125,-7.1875 1.09375,-7.1875 v 0.34375 c 0.265625,0 0.859375,0 1.53125,-0.296875 v 6.21875 c 0,0.4375 -0.046875,0.578125 -1.09375,0.578125 h -0.375 V 0 c 0.328125,-0.03125 1.484375,-0.03125 1.875,-0.03125 0.40625,0 1.546875,0 1.875,0.03125 v -0.34375 h -0.375 c -1.046875,0 -1.09375,-0.140625 -1.09375,-0.578125 z m 0,0"
             id="id-ac36577c-eb6a-44c1-b804-4d3c9a7efcc4" />
        </g>
      </g>
      <g
         style="fill:#000000;fill-opacity:1"
         id="id-c6683824-7a86-4fbe-8a1d-64314b290faa">
        <g
           transform="translate(313.475,152.199)"
           id="g2259">
          <path
             style="stroke:none"
             d="m 8.0625,-3.875 c 0.171875,0 0.390625,0 0.390625,-0.21875 C 8.453125,-4.3125 8.25,-4.3125 8.0625,-4.3125 H 1.03125 c -0.171875,0 -0.390625,0 -0.390625,0.21875 0,0.21875 0.203125,0.21875 0.390625,0.21875 z m 0,2.21875 c 0.171875,0 0.390625,0 0.390625,-0.203125 C 8.453125,-2.09375 8.25,-2.09375 8.0625,-2.09375 H 1.03125 c -0.171875,0 -0.390625,0 -0.390625,0.21875 0,0.21875 0.203125,0.21875 0.390625,0.21875 z m 0,0"
             id="id-34053da4-7f99-474d-929b-df22c2c34fda" />
        </g>
      </g>
      <g
         style="fill:#000000;fill-opacity:1"
         id="id-31340454-fbbb-40d1-8702-15128e92920d">
        <g
           transform="translate(325.904,152.199)"
           id="g2263">
          <path
             style="stroke:none"
             d="m 5.359375,-3.828125 c 0,-0.984375 -0.0625,-1.953125 -0.5,-2.859375 -0.484375,-1 -1.34375,-1.265625 -1.9375,-1.265625 -0.6875,0 -1.53125,0.34375 -1.984375,1.34375 -0.328125,0.75 -0.453125,1.5 -0.453125,2.78125 0,1.15625 0.09375,2.03125 0.515625,2.890625 0.46875,0.90625 1.296875,1.1875 1.921875,1.1875 1.03125,0 1.625,-0.625 1.984375,-1.3125 0.421875,-0.890625 0.453125,-2.0625 0.453125,-2.765625 z m -2.4375,3.84375 C 2.53125,0.015625 1.75,-0.203125 1.53125,-1.5 c -0.125,-0.71875 -0.125,-1.625 -0.125,-2.46875 0,-0.984375 0,-1.859375 0.1875,-2.5625 0.203125,-0.8125 0.8125,-1.171875 1.328125,-1.171875 0.453125,0 1.140625,0.265625 1.375,1.296875 0.15625,0.6875 0.15625,1.625 0.15625,2.4375 0,0.796875 0,1.703125 -0.140625,2.4375 -0.21875,1.3125 -0.984375,1.546875 -1.390625,1.546875 z m 0,0"
             id="id-71ba9574-c8ab-4685-bcce-64ac1b14a97f" />
        </g>
      </g>
    </g>
  </g>
  <circle
     style="fill:#ff0001;fill-opacity:1;stroke:none;stroke-width:0.402584;stroke-linecap:round;stroke-miterlimit:4;stroke-dasharray:none"
     id="path2430"
     cx="38.125694"
     cy="22.898003"
     r="1.00646" />
  <circle
     style="fill:#ff0001;fill-opacity:1;stroke:none;stroke-width:0.402584;stroke-linecap:round;stroke-miterlimit:4;stroke-dasharray:none"
     id="circle3522"
     cx="37.999756"
     cy="41.36681"
     r="1.00646" />
  <path
     style="fill:none;stroke:#000000;stroke-width:0.15875;stroke-linecap:butt;stroke-linejoin:miter;stroke-miterlimit:4;stroke-dasharray:none;stroke-opacity:1"
     d="m 23.523487,18.861759 c 3.954905,1.245364 7.909495,2.490628 11.863767,3.735793"
     id="path3934"
     inkscape:path-effect="#path-effect3936"
     inkscape:original-d="m 23.523487,18.861759 c 3.954853,1.245529 7.909443,2.490793 11.863767,3.735793"
     sodipodi:nodetypes="cc" />
  <path
     style="fill:none;stroke:#000000;stroke-width:0.15875;stroke-linecap:butt;stroke-linejoin:miter;stroke-miterlimit:4;stroke-dasharray:none;stroke-opacity:1"
     d="m 22.123975,19.497023 c 4.69012,7.05483 9.38004,14.109358 14.069755,21.163579"
     id="path4155"
     inkscape:path-effect="#path-effect4159"
     inkscape:original-d="m 22.123975,19.497023 c 4.690182,7.054789 9.380101,14.109317 14.069755,21.163579"
     sodipodi:nodetypes="cc" />
  <g
     transform="matrix(0.426861,0,0,0.426861,60.96955,25.491648)"
     ns0:version="1.8.0"
     ns0:texconverter="pdflatex"
     ns0:pdfconverter="inkscape"
     ns0:text="$$\\mathbb{R}$$"
     ns0:preamble="/home/ivo/.config/inkscape/extensions/textext/default_packages.tex"
     ns0:scale="1.21"
     ns0:alignment="middle center"
     ns0:stroke-to-path="0"
     ns0:inkscapeversion="1.1.2"
     ns0:jacobian_sqrt="0.426861"
     id="g4376">
    <defs
       id="id-829cf9cc-69dd-42f5-9b9d-b96a5ff47d51">
      <g
         id="id-5f6a1bbb-a695-43c0-b8da-cf8edaacfc99">
        <symbol
           overflow="visible"
           id="id-05136fe7-c074-4980-9136-ae993003f954">
          <path
             style="stroke:none"
             d=""
             id="id-cd1e0eef-d145-4d2b-a44b-e1cb58f3ed87" />
        </symbol>
        <symbol
           overflow="visible"
           id="id-cf3af4fe-eb99-4a8f-ae4f-35975cb8f384">
          <path
             style="stroke:none"
             d="m 3.203125,-3.75 h 0.4375 l 1.78125,2.765625 c 0.125,0.203125 0.40625,0.65625 0.546875,0.84375 C 6.046875,0 6.078125,0 6.359375,0 h 1.65625 C 8.21875,0 8.40625,0 8.40625,-0.21875 c 0,-0.09375 -0.078125,-0.171875 -0.1875,-0.203125 -0.4375,-0.09375 -1.015625,-0.875 -1.3125,-1.265625 -0.078125,-0.125 -0.671875,-0.90625 -1.484375,-2.203125 1.0625,-0.1875 2.09375,-0.640625 2.09375,-2.0625 0,-1.65625 -1.75,-2.234375 -3.171875,-2.234375 h -3.75 c -0.21875,0 -0.40625,0 -0.40625,0.21875 0,0.203125 0.234375,0.203125 0.328125,0.203125 C 1.1875,-7.765625 1.25,-7.6875 1.25,-7.09375 v 6 c 0,0.59375 -0.0625,0.671875 -0.734375,0.671875 -0.09375,0 -0.328125,0 -0.328125,0.203125 C 0.1875,0 0.375,0 0.59375,0 H 3.875 c 0.21875,0 0.390625,0 0.390625,-0.21875 0,-0.203125 -0.203125,-0.203125 -0.328125,-0.203125 -0.6875,0 -0.734375,-0.09375 -0.734375,-0.671875 z m 2.3125,-0.59375 C 5.84375,-4.78125 5.875,-5.421875 5.875,-5.9375 c 0,-0.578125 -0.0625,-1.203125 -0.453125,-1.703125 0.5,0.109375 1.671875,0.484375 1.671875,1.6875 0,0.78125 -0.359375,1.390625 -1.578125,1.609375 z M 3.203125,-7.125 c 0,-0.25 0,-0.640625 0.734375,-0.640625 1.015625,0 1.53125,0.421875 1.53125,1.828125 0,1.53125 -0.375,1.765625 -2.265625,1.765625 z m -1.625,6.703125 c 0.09375,-0.21875 0.09375,-0.546875 0.09375,-0.65625 v -6.03125 c 0,-0.125 0,-0.4375 -0.09375,-0.65625 H 2.9375 c -0.15625,0.1875 -0.15625,0.421875 -0.15625,0.609375 v 6.078125 c 0,0.125 0,0.4375 0.09375,0.65625 z M 4.125,-3.75 c 0.078125,-0.015625 0.125,-0.03125 0.21875,-0.03125 0.1875,0 0.453125,-0.015625 0.625,-0.046875 0.1875,0.296875 1.46875,2.421875 2.46875,3.40625 H 6.28125 Z m 0,0"
             id="id-2bb564e3-7069-4629-a15f-58d8792e81c0" />
        </symbol>
      </g>
    </defs>
    <g
       id="id-17d505be-1bba-4589-8078-3eac09b73cf9"
       transform="translate(-300.996,-144.012)">
      <g
         style="fill:#000000;fill-opacity:1"
         id="id-b934c3df-be06-47c1-acbd-e647bb422612">
        <g
           transform="translate(300.809,152.199)"
           id="g4606">
          <path
             style="stroke:none"
             d="m 3.203125,-3.75 h 0.4375 l 1.78125,2.765625 c 0.125,0.203125 0.40625,0.65625 0.546875,0.84375 C 6.046875,0 6.078125,0 6.359375,0 h 1.65625 C 8.21875,0 8.40625,0 8.40625,-0.21875 c 0,-0.09375 -0.078125,-0.171875 -0.1875,-0.203125 -0.4375,-0.09375 -1.015625,-0.875 -1.3125,-1.265625 -0.078125,-0.125 -0.671875,-0.90625 -1.484375,-2.203125 1.0625,-0.1875 2.09375,-0.640625 2.09375,-2.0625 0,-1.65625 -1.75,-2.234375 -3.171875,-2.234375 h -3.75 c -0.21875,0 -0.40625,0 -0.40625,0.21875 0,0.203125 0.234375,0.203125 0.328125,0.203125 C 1.1875,-7.765625 1.25,-7.6875 1.25,-7.09375 v 6 c 0,0.59375 -0.0625,0.671875 -0.734375,0.671875 -0.09375,0 -0.328125,0 -0.328125,0.203125 C 0.1875,0 0.375,0 0.59375,0 H 3.875 c 0.21875,0 0.390625,0 0.390625,-0.21875 0,-0.203125 -0.203125,-0.203125 -0.328125,-0.203125 -0.6875,0 -0.734375,-0.09375 -0.734375,-0.671875 z m 2.3125,-0.59375 C 5.84375,-4.78125 5.875,-5.421875 5.875,-5.9375 c 0,-0.578125 -0.0625,-1.203125 -0.453125,-1.703125 0.5,0.109375 1.671875,0.484375 1.671875,1.6875 0,0.78125 -0.359375,1.390625 -1.578125,1.609375 z M 3.203125,-7.125 c 0,-0.25 0,-0.640625 0.734375,-0.640625 1.015625,0 1.53125,0.421875 1.53125,1.828125 0,1.53125 -0.375,1.765625 -2.265625,1.765625 z m -1.625,6.703125 c 0.09375,-0.21875 0.09375,-0.546875 0.09375,-0.65625 v -6.03125 c 0,-0.125 0,-0.4375 -0.09375,-0.65625 H 2.9375 c -0.15625,0.1875 -0.15625,0.421875 -0.15625,0.609375 v 6.078125 c 0,0.125 0,0.4375 0.09375,0.65625 z M 4.125,-3.75 c 0.078125,-0.015625 0.125,-0.03125 0.21875,-0.03125 0.1875,0 0.453125,-0.015625 0.625,-0.046875 0.1875,0.296875 1.46875,2.421875 2.46875,3.40625 H 6.28125 Z m 0,0"
             id="id-531cc360-22a3-4e48-858d-212a7c840c5d" />
        </g>
      </g>
    </g>
  </g>
  <g
     transform="matrix(0.426861,0,0,0.426861,40.324071,1.5877135)"
     ns0:version="1.8.0"
     ns0:texconverter="pdflatex"
     ns0:pdfconverter="inkscape"
     ns0:text="$$i\\mathbb{R}$$"
     ns0:preamble="/home/ivo/.config/inkscape/extensions/textext/default_packages.tex"
     ns0:scale="1.21"
     ns0:alignment="middle center"
     ns0:stroke-to-path="0"
     ns0:inkscapeversion="1.1.2"
     ns0:jacobian_sqrt="0.426861"
     id="g4662">
    <defs
       id="id-f3d49c0b-68f6-4cdc-b9d2-ba44e6807fc7">
      <g
         id="id-9b472c79-43b8-4ff6-b050-3655cefcbba1">
        <symbol
           overflow="visible"
           id="id-f49ce789-1530-4a56-a83f-71ebe7efdece">
          <path
             style="stroke:none"
             d=""
             id="id-b2893e3f-4268-400b-9862-ae5013eb6bbc" />
        </symbol>
        <symbol
           overflow="visible"
           id="id-600c0456-dc4d-491e-8677-3a90d9e4cb74">
          <path
             style="stroke:none"
             d="m 3.375,-1.703125 c 0,-0.0625 -0.046875,-0.109375 -0.109375,-0.109375 -0.109375,0 -0.125,0.03125 -0.1875,0.234375 -0.3125,1.09375 -0.796875,1.453125 -1.1875,1.453125 -0.140625,0 -0.3125,-0.03125 -0.3125,-0.390625 0,-0.328125 0.140625,-0.671875 0.28125,-1.03125 L 2.6875,-3.78125 c 0.03125,-0.09375 0.125,-0.3125 0.125,-0.53125 0,-0.5 -0.359375,-0.953125 -0.953125,-0.953125 -1.09375,0 -1.53125,1.734375 -1.53125,1.828125 0,0.046875 0.046875,0.109375 0.125,0.109375 0.109375,0 0.125,-0.046875 0.171875,-0.21875 0.28125,-1 0.734375,-1.484375 1.203125,-1.484375 0.109375,0 0.3125,0.015625 0.3125,0.390625 0,0.3125 -0.15625,0.703125 -0.25,0.96875 l -0.84375,2.21875 C 0.984375,-1.25 0.90625,-1.0625 0.90625,-0.84375 c 0,0.53125 0.375,0.96875 0.953125,0.96875 1.09375,0 1.515625,-1.75 1.515625,-1.828125 z m -0.09375,-5.75 c 0,-0.1875 -0.140625,-0.40625 -0.40625,-0.40625 -0.265625,0 -0.578125,0.265625 -0.578125,0.578125 0,0.296875 0.25,0.390625 0.390625,0.390625 0.328125,0 0.59375,-0.3125 0.59375,-0.5625 z m 0,0"
             id="id-5835490f-300a-4c93-a700-0526ca7691ef" />
        </symbol>
        <symbol
           overflow="visible"
           id="id-2eee30b4-242b-43fc-b3a8-e7471a82ba48">
          <path
             style="stroke:none"
             d=""
             id="id-bbe77265-ee09-47fb-919f-1bd57d5b9e23" />
        </symbol>
        <symbol
           overflow="visible"
           id="id-40aa3eb2-d0a5-48de-b3a1-c138601ecf71">
          <path
             style="stroke:none"
             d="m 3.203125,-3.75 h 0.4375 l 1.78125,2.765625 c 0.125,0.203125 0.40625,0.65625 0.546875,0.84375 C 6.046875,0 6.078125,0 6.359375,0 h 1.65625 C 8.21875,0 8.40625,0 8.40625,-0.21875 c 0,-0.09375 -0.078125,-0.171875 -0.1875,-0.203125 -0.4375,-0.09375 -1.015625,-0.875 -1.3125,-1.265625 -0.078125,-0.125 -0.671875,-0.90625 -1.484375,-2.203125 1.0625,-0.1875 2.09375,-0.640625 2.09375,-2.0625 0,-1.65625 -1.75,-2.234375 -3.171875,-2.234375 h -3.75 c -0.21875,0 -0.40625,0 -0.40625,0.21875 0,0.203125 0.234375,0.203125 0.328125,0.203125 C 1.1875,-7.765625 1.25,-7.6875 1.25,-7.09375 v 6 c 0,0.59375 -0.0625,0.671875 -0.734375,0.671875 -0.09375,0 -0.328125,0 -0.328125,0.203125 C 0.1875,0 0.375,0 0.59375,0 H 3.875 c 0.21875,0 0.390625,0 0.390625,-0.21875 0,-0.203125 -0.203125,-0.203125 -0.328125,-0.203125 -0.6875,0 -0.734375,-0.09375 -0.734375,-0.671875 z m 2.3125,-0.59375 C 5.84375,-4.78125 5.875,-5.421875 5.875,-5.9375 c 0,-0.578125 -0.0625,-1.203125 -0.453125,-1.703125 0.5,0.109375 1.671875,0.484375 1.671875,1.6875 0,0.78125 -0.359375,1.390625 -1.578125,1.609375 z M 3.203125,-7.125 c 0,-0.25 0,-0.640625 0.734375,-0.640625 1.015625,0 1.53125,0.421875 1.53125,1.828125 0,1.53125 -0.375,1.765625 -2.265625,1.765625 z m -1.625,6.703125 c 0.09375,-0.21875 0.09375,-0.546875 0.09375,-0.65625 v -6.03125 c 0,-0.125 0,-0.4375 -0.09375,-0.65625 H 2.9375 c -0.15625,0.1875 -0.15625,0.421875 -0.15625,0.609375 v 6.078125 c 0,0.125 0,0.4375 0.09375,0.65625 z M 4.125,-3.75 c 0.078125,-0.015625 0.125,-0.03125 0.21875,-0.03125 0.1875,0 0.453125,-0.015625 0.625,-0.046875 0.1875,0.296875 1.46875,2.421875 2.46875,3.40625 H 6.28125 Z m 0,0"
             id="id-187fbbcc-f571-4eaa-b485-a03baddc3a68" />
        </symbol>
      </g>
    </defs>
    <g
       id="id-e3c5f98e-bc53-497b-9cf1-730205114dab"
       transform="translate(-299.14,-144.012)">
      <g
         style="fill:#000000;fill-opacity:1"
         id="id-83a27b5a-cd6e-48b5-8f40-3592e48be1e4">
        <g
           transform="translate(298.812,152.199)"
           id="g4889">
          <path
             style="stroke:none"
             d="m 3.375,-1.703125 c 0,-0.0625 -0.046875,-0.109375 -0.109375,-0.109375 -0.109375,0 -0.125,0.03125 -0.1875,0.234375 -0.3125,1.09375 -0.796875,1.453125 -1.1875,1.453125 -0.140625,0 -0.3125,-0.03125 -0.3125,-0.390625 0,-0.328125 0.140625,-0.671875 0.28125,-1.03125 L 2.6875,-3.78125 c 0.03125,-0.09375 0.125,-0.3125 0.125,-0.53125 0,-0.5 -0.359375,-0.953125 -0.953125,-0.953125 -1.09375,0 -1.53125,1.734375 -1.53125,1.828125 0,0.046875 0.046875,0.109375 0.125,0.109375 0.109375,0 0.125,-0.046875 0.171875,-0.21875 0.28125,-1 0.734375,-1.484375 1.203125,-1.484375 0.109375,0 0.3125,0.015625 0.3125,0.390625 0,0.3125 -0.15625,0.703125 -0.25,0.96875 l -0.84375,2.21875 C 0.984375,-1.25 0.90625,-1.0625 0.90625,-0.84375 c 0,0.53125 0.375,0.96875 0.953125,0.96875 1.09375,0 1.515625,-1.75 1.515625,-1.828125 z m -0.09375,-5.75 c 0,-0.1875 -0.140625,-0.40625 -0.40625,-0.40625 -0.265625,0 -0.578125,0.265625 -0.578125,0.578125 0,0.296875 0.25,0.390625 0.390625,0.390625 0.328125,0 0.59375,-0.3125 0.59375,-0.5625 z m 0,0"
             id="id-ffd9a4ef-b83d-4764-8395-4b3e795da0d5" />
        </g>
      </g>
      <g
         style="fill:#000000;fill-opacity:1"
         id="id-5c92e294-d3b8-4934-b892-bbc14bf5df47">
        <g
           transform="translate(302.805,152.199)"
           id="g4893">
          <path
             style="stroke:none"
             d="m 3.203125,-3.75 h 0.4375 l 1.78125,2.765625 c 0.125,0.203125 0.40625,0.65625 0.546875,0.84375 C 6.046875,0 6.078125,0 6.359375,0 h 1.65625 C 8.21875,0 8.40625,0 8.40625,-0.21875 c 0,-0.09375 -0.078125,-0.171875 -0.1875,-0.203125 -0.4375,-0.09375 -1.015625,-0.875 -1.3125,-1.265625 -0.078125,-0.125 -0.671875,-0.90625 -1.484375,-2.203125 1.0625,-0.1875 2.09375,-0.640625 2.09375,-2.0625 0,-1.65625 -1.75,-2.234375 -3.171875,-2.234375 h -3.75 c -0.21875,0 -0.40625,0 -0.40625,0.21875 0,0.203125 0.234375,0.203125 0.328125,0.203125 C 1.1875,-7.765625 1.25,-7.6875 1.25,-7.09375 v 6 c 0,0.59375 -0.0625,0.671875 -0.734375,0.671875 -0.09375,0 -0.328125,0 -0.328125,0.203125 C 0.1875,0 0.375,0 0.59375,0 H 3.875 c 0.21875,0 0.390625,0 0.390625,-0.21875 0,-0.203125 -0.203125,-0.203125 -0.328125,-0.203125 -0.6875,0 -0.734375,-0.09375 -0.734375,-0.671875 z m 2.3125,-0.59375 C 5.84375,-4.78125 5.875,-5.421875 5.875,-5.9375 c 0,-0.578125 -0.0625,-1.203125 -0.453125,-1.703125 0.5,0.109375 1.671875,0.484375 1.671875,1.6875 0,0.78125 -0.359375,1.390625 -1.578125,1.609375 z M 3.203125,-7.125 c 0,-0.25 0,-0.640625 0.734375,-0.640625 1.015625,0 1.53125,0.421875 1.53125,1.828125 0,1.53125 -0.375,1.765625 -2.265625,1.765625 z m -1.625,6.703125 c 0.09375,-0.21875 0.09375,-0.546875 0.09375,-0.65625 v -6.03125 c 0,-0.125 0,-0.4375 -0.09375,-0.65625 H 2.9375 c -0.15625,0.1875 -0.15625,0.421875 -0.15625,0.609375 v 6.078125 c 0,0.125 0,0.4375 0.09375,0.65625 z M 4.125,-3.75 c 0.078125,-0.015625 0.125,-0.03125 0.21875,-0.03125 0.1875,0 0.453125,-0.015625 0.625,-0.046875 0.1875,0.296875 1.46875,2.421875 2.46875,3.40625 H 6.28125 Z m 0,0"
             id="id-14e25e25-4093-4014-b9c7-1f14e4a8ec9b" />
        </g>
      </g>
    </g>
  </g>
</svg>
