<?xml version="1.0" encoding="UTF-8" standalone="no"?>
<!-- Created with Inkscape (http://www.inkscape.org/) -->

<svg
   width="39.123878mm"
   height="15mm"
   viewBox="0 0 39.123879 15.000001"
   version="1.1"
   id="svg5"
   sodipodi:docname="zeta.svg"
   inkscape:version="1.1.2 (0a00cf5339, 2022-02-04)"
   xmlns:inkscape="http://www.inkscape.org/namespaces/inkscape"
   xmlns:sodipodi="http://sodipodi.sourceforge.net/DTD/sodipodi-0.dtd"
   xmlns="http://www.w3.org/2000/svg"
   xmlns:svg="http://www.w3.org/2000/svg"
   xmlns:ns13="http://www.iki.fi/pav/software/textext/">
  <sodipodi:namedview
     id="namedview7"
     pagecolor="#ffffff"
     bordercolor="#666666"
     borderopacity="1.0"
     inkscape:pageshadow="2"
     inkscape:pageopacity="0.0"
     inkscape:pagecheckerboard="0"
     inkscape:document-units="mm"
     showgrid="false"
     inkscape:zoom="0.73406285"
     inkscape:cx="-303.7887"
     inkscape:cy="17.028515"
     inkscape:window-width="1886"
     inkscape:window-height="1009"
     inkscape:window-x="17"
     inkscape:window-y="54"
     inkscape:window-maximized="1"
     inkscape:current-layer="layer1"
     fit-margin-top="0"
     fit-margin-left="0"
     fit-margin-right="0"
     fit-margin-bottom="0" />
  <defs
     id="defs2" />
  <g
     inkscape:label="Livello 1"
     inkscape:groupmode="layer"
     id="layer1"
     transform="translate(-240.13311,-144.10895)">
    <g
       transform="matrix(0.426861 0 0 0.426861 240.133 145.167)"
       ns13:version="1.8.0"
       ns13:texconverter="pdflatex"
       ns13:pdfconverter="inkscape"
       ns13:text="$$\\zeta(s) = \\prod_{p} \\frac{1}{1 - p^{-s}}$$"
       ns13:preamble="/home/ivo/.config/inkscape/extensions/textext/default_packages.tex"
       ns13:scale="1.21"
       ns13:alignment="middle center"
       ns13:stroke-to-path="0"
       ns13:inkscapeversion="1.1.2"
       ns13:jacobian_sqrt="0.426861"
       id="g942">
      <defs
         id="id-0033feb9-49e4-4d1d-b0f0-6856dcbe25c8">
        <g
           id="id-cccddc9a-6b68-473d-a700-6201d49dd021">
          <symbol
             overflow="visible"
             id="id-4c7563eb-2aff-469a-a5ec-840867aba2a4">
            <path
               style="stroke:none"
               d=""
               id="id-b61e6962-b1d7-45af-939e-70781aafbe7a" />
          </symbol>
          <symbol
             overflow="visible"
             id="id-1c5c096a-161a-4ddc-be74-16f168ac32ba">
            <path
               style="stroke:none"
               d="m 2.265625,-0.578125 c -0.71875,-0.28125 -1.125,-0.828125 -1.125,-1.71875 0,-1.640625 1.21875,-3.828125 2.6875,-4.671875 0.21875,0.203125 0.484375,0.203125 0.71875,0.203125 0.296875,0 1.015625,0 1.015625,-0.34375 0,-0.296875 -0.53125,-0.296875 -0.90625,-0.296875 -0.25,0 -0.453125,0 -0.765625,0.125 -0.0625,-0.15625 -0.09375,-0.328125 -0.09375,-0.5 0,-0.21875 0.046875,-0.375 0.046875,-0.421875 0,-0.0625 -0.0625,-0.109375 -0.125,-0.109375 -0.1875,0 -0.1875,0.4375 -0.1875,0.53125 0,0.109375 0,0.359375 0.140625,0.609375 C 2.28125,-6.453125 0.53125,-4.21875 0.53125,-1.984375 0.53125,-0.34375 1.625,0.03125 2.25,0.25 c 0.15625,0.046875 0.53125,0.1875 0.6875,0.234375 0.5,0.171875 0.953125,0.328125 0.953125,0.90625 0,0.34375 -0.25,0.8125 -0.6875,0.8125 -0.234375,0 -0.5625,-0.09375 -0.859375,-0.390625 C 2.296875,1.765625 2.265625,1.75 2.21875,1.75 c -0.109375,0 -0.125,0.09375 -0.125,0.109375 0,0.125 0.515625,0.578125 1.109375,0.578125 C 3.96875,2.4375 4.5,1.640625 4.5,1.015625 4.5,0.171875 3.796875,-0.0625 3.359375,-0.203125 Z M 4.09375,-7.09375 c 0.171875,-0.078125 0.34375,-0.078125 0.546875,-0.078125 0.375,0 0.421875,0.015625 0.65625,0.078125 C 5.15625,-7.046875 5.0625,-7 4.546875,-7 4.296875,-7 4.21875,-7 4.09375,-7.09375 Z m 0,0"
               id="id-fdfa2009-044e-40bb-ac73-475fb96f05c1" />
          </symbol>
          <symbol
             overflow="visible"
             id="id-b5d33d1c-2e83-4f1e-9dbe-b2ec398f41f7">
            <path
               style="stroke:none"
               d="m 2.71875,-2.390625 c 0.203125,0.03125 0.53125,0.109375 0.609375,0.125 0.15625,0.046875 0.6875,0.234375 0.6875,0.8125 0,0.359375 -0.328125,1.328125 -1.71875,1.328125 -0.25,0 -1.15625,-0.03125 -1.390625,-0.6875 C 1.390625,-0.75 1.625,-1.125 1.625,-1.390625 c 0,-0.25 -0.171875,-0.375 -0.40625,-0.375 -0.265625,0 -0.609375,0.203125 -0.609375,0.734375 0,0.703125 0.71875,1.15625 1.671875,1.15625 1.8125,0 2.359375,-1.34375 2.359375,-1.96875 0,-0.171875 0,-0.515625 -0.390625,-0.890625 C 3.953125,-3.03125 3.671875,-3.078125 3.03125,-3.21875 2.703125,-3.28125 2.1875,-3.390625 2.1875,-3.9375 c 0,-0.234375 0.21875,-1.09375 1.34375,-1.09375 0.515625,0 1,0.1875 1.125,0.625 -0.53125,0 -0.5625,0.453125 -0.5625,0.46875 0,0.25 0.234375,0.3125 0.34375,0.3125 0.171875,0 0.5,-0.125 0.5,-0.625 0,-0.5 -0.453125,-1.015625 -1.390625,-1.015625 -1.5625,0 -1.984375,1.21875 -1.984375,1.71875 0,0.90625 0.890625,1.09375 1.15625,1.15625 z m 0,0"
               id="id-9892baaf-7f30-4589-85f1-13d1ea1631e9" />
          </symbol>
          <symbol
             overflow="visible"
             id="id-771a041b-b7ea-4a92-8dc7-e389806788fd">
            <path
               style="stroke:none"
               d="M 0.515625,1.515625 C 0.4375,1.875 0.375,1.96875 -0.109375,1.96875 c -0.140625,0 -0.265625,0 -0.265625,0.234375 0,0.015625 0.015625,0.109375 0.140625,0.109375 0.15625,0 0.328125,-0.015625 0.484375,-0.015625 h 0.515625 c 0.25,0 0.859375,0.015625 1.109375,0.015625 0.078125,0 0.21875,0 0.21875,-0.203125 C 2.09375,1.96875 2.015625,1.96875 1.8125,1.96875 1.25,1.96875 1.21875,1.890625 1.21875,1.796875 1.21875,1.65625 1.75,-0.40625 1.828125,-0.6875 c 0.125,0.34375 0.453125,0.8125 1.078125,0.8125 1.34375,0 2.8125,-1.765625 2.8125,-3.515625 0,-1.109375 -0.625,-1.875 -1.515625,-1.875 -0.765625,0 -1.421875,0.734375 -1.546875,0.90625 -0.09375,-0.59375 -0.5625,-0.90625 -1.046875,-0.90625 -0.34375,0 -0.625,0.15625 -0.84375,0.609375 C 0.546875,-4.21875 0.375,-3.484375 0.375,-3.4375 c 0,0.046875 0.0625,0.109375 0.140625,0.109375 0.09375,0 0.109375,-0.015625 0.171875,-0.296875 0.1875,-0.703125 0.40625,-1.40625 0.890625,-1.40625 0.28125,0 0.375,0.1875 0.375,0.546875 0,0.28125 -0.046875,0.40625 -0.09375,0.625 z m 2.0625,-5.25 C 2.671875,-4.0625 3,-4.40625 3.1875,-4.578125 c 0.140625,-0.125 0.53125,-0.453125 0.984375,-0.453125 0.53125,0 0.765625,0.53125 0.765625,1.140625 0,0.578125 -0.328125,1.9375 -0.640625,2.546875 C 4,-0.6875 3.453125,-0.125 2.90625,-0.125 c -0.8125,0 -0.953125,-1.015625 -0.953125,-1.0625 0,-0.046875 0.03125,-0.140625 0.046875,-0.203125 z m 0,0"
               id="id-0cb537e5-965c-4552-8adf-873e25f98f3f" />
          </symbol>
          <symbol
             overflow="visible"
             id="id-23443a25-5ec2-4a0d-a6c6-f668ac746fbf">
            <path
               style="stroke:none"
               d=""
               id="id-27423ac2-2b37-42c4-a406-0345891405fb" />
          </symbol>
          <symbol
             overflow="visible"
             id="id-2b4ba1fa-9730-49fb-8785-2645cca03644">
            <path
               style="stroke:none"
               d="m 3.890625,2.90625 c 0,-0.03125 0,-0.0625 -0.203125,-0.265625 C 2.484375,1.4375 1.8125,-0.53125 1.8125,-2.96875 c 0,-2.328125 0.5625,-4.328125 1.953125,-5.734375 0.125,-0.109375 0.125,-0.125 0.125,-0.171875 0,-0.0625 -0.0625,-0.09375 -0.109375,-0.09375 -0.15625,0 -1.140625,0.859375 -1.71875,2.03125 -0.609375,1.21875 -0.890625,2.484375 -0.890625,3.96875 0,1.0625 0.171875,2.484375 0.78125,3.75 C 2.671875,2.21875 3.640625,3 3.78125,3 3.828125,3 3.890625,2.96875 3.890625,2.90625 Z m 0,0"
               id="id-a12f4943-cc5e-4a14-b7f9-27f4a269cfea" />
          </symbol>
          <symbol
             overflow="visible"
             id="id-67cde874-1936-4d39-8dff-70fdfb066554">
            <path
               style="stroke:none"
               d="M 3.375,-2.96875 C 3.375,-3.890625 3.25,-5.359375 2.578125,-6.75 1.875,-8.1875 0.890625,-8.96875 0.765625,-8.96875 c -0.046875,0 -0.109375,0.03125 -0.109375,0.09375 0,0.046875 0,0.0625 0.203125,0.265625 1.203125,1.203125 1.859375,3.1875 1.859375,5.625 0,2.3125 -0.5625,4.3125 -1.9375,5.71875 C 0.65625,2.84375 0.65625,2.875 0.65625,2.90625 0.65625,2.96875 0.71875,3 0.765625,3 0.921875,3 1.90625,2.140625 2.484375,0.96875 3.09375,-0.25 3.375,-1.546875 3.375,-2.96875 Z m 0,0"
               id="id-b4374e94-8fcd-40d7-8d40-eb5cb0834b65" />
          </symbol>
          <symbol
             overflow="visible"
             id="id-21cc8a50-a31a-400a-af7c-d13874a77a86">
            <path
               style="stroke:none"
               d="m 8.0625,-3.875 c 0.171875,0 0.390625,0 0.390625,-0.21875 C 8.453125,-4.3125 8.25,-4.3125 8.0625,-4.3125 H 1.03125 c -0.171875,0 -0.390625,0 -0.390625,0.21875 0,0.21875 0.203125,0.21875 0.390625,0.21875 z m 0,2.21875 c 0.171875,0 0.390625,0 0.390625,-0.203125 C 8.453125,-2.09375 8.25,-2.09375 8.0625,-2.09375 H 1.03125 c -0.171875,0 -0.390625,0 -0.390625,0.21875 0,0.21875 0.203125,0.21875 0.390625,0.21875 z m 0,0"
               id="id-0955925d-ff9d-4af1-8b5e-9864d79ff4bf" />
          </symbol>
          <symbol
             overflow="visible"
             id="id-9a434696-3003-400c-bef9-5d73a5092b71">
            <path
               style="stroke:none"
               d="m 3.4375,-7.65625 c 0,-0.28125 0,-0.296875 -0.234375,-0.296875 C 2.921875,-7.625 2.3125,-7.1875 1.09375,-7.1875 v 0.34375 c 0.265625,0 0.859375,0 1.53125,-0.296875 v 6.21875 c 0,0.4375 -0.046875,0.578125 -1.09375,0.578125 h -0.375 V 0 c 0.328125,-0.03125 1.484375,-0.03125 1.875,-0.03125 0.40625,0 1.546875,0 1.875,0.03125 v -0.34375 h -0.375 c -1.046875,0 -1.09375,-0.140625 -1.09375,-0.578125 z m 0,0"
               id="id-87c6475f-db78-4005-ad43-f9f3a964df87" />
          </symbol>
          <symbol
             overflow="visible"
             id="id-fe7ba2af-dd73-4d1e-b936-891d48179aeb">
            <path
               style="stroke:none"
               d=""
               id="id-986cdff9-3f3d-46ff-8f30-273da0550db2" />
          </symbol>
          <symbol
             overflow="visible"
             id="id-7522e8f2-6223-4f45-ba54-f6e937078498">
            <path
               style="stroke:none"
               d="M 14.59375,16.734375 V 16.09375 c -1.59375,0 -1.953125,-0.5625 -1.953125,-1.3125 V 1.953125 c 0,-0.765625 0.375,-1.3125 1.953125,-1.3125 V 0 H 0.671875 v 0.640625 c 1.59375,0 1.953125,0.546875 1.953125,1.3125 V 14.78125 c 0,0.765625 -0.375,1.3125 -1.953125,1.3125 v 0.640625 h 5.75 V 16.09375 c -1.59375,0 -1.96875,-0.5625 -1.96875,-1.3125 V 0.640625 H 10.8125 V 14.78125 c 0,0.765625 -0.390625,1.3125 -1.96875,1.3125 v 0.640625 z m 0,0"
               id="id-737b931b-9117-4096-bd7c-dd8d7487f90a" />
          </symbol>
          <symbol
             overflow="visible"
             id="id-ac359c51-28c6-43e8-a58d-f202d59f9949">
            <path
               style="stroke:none"
               d=""
               id="id-67889955-5db3-4f4c-a104-ff7cdc856f7b" />
          </symbol>
          <symbol
             overflow="visible"
             id="id-b8ecff03-5710-41e6-afd3-4cafcf6ece85">
            <path
               style="stroke:none"
               d="m 0.421875,0.96875 c -0.078125,0.25 -0.09375,0.3125 -0.40625,0.3125 -0.109375,0 -0.203125,0 -0.203125,0.15625 0,0.0625 0.0625,0.109375 0.109375,0.109375 0.078125,0 0.109375,-0.03125 0.703125,-0.03125 0.5625,0 0.734375,0.03125 0.796875,0.03125 0.03125,0 0.140625,0 0.140625,-0.15625 0,-0.109375 -0.109375,-0.109375 -0.203125,-0.109375 -0.375,0 -0.375,-0.046875 -0.375,-0.125 0,-0.046875 0.140625,-0.609375 0.375,-1.546875 0.109375,0.1875 0.359375,0.46875 0.78125,0.46875 0.984375,0 2,-1.125 2,-2.28125 0,-0.796875 -0.5,-1.3125 -1.140625,-1.3125 -0.484375,0 -0.859375,0.328125 -1.09375,0.5625 -0.171875,-0.5625 -0.703125,-0.5625 -0.78125,-0.5625 -0.28125,0 -0.484375,0.1875 -0.609375,0.4375 -0.1875,0.359375 -0.28125,0.765625 -0.28125,0.78125 0,0.078125 0.0625,0.109375 0.125,0.109375 0.109375,0 0.109375,-0.03125 0.171875,-0.25 0.09375,-0.40625 0.234375,-0.859375 0.5625,-0.859375 0.203125,0 0.265625,0.1875 0.265625,0.375 0,0.078125 -0.03125,0.28125 -0.046875,0.34375 z M 1.875,-2.453125 C 1.921875,-2.59375 1.921875,-2.609375 2.046875,-2.75 2.34375,-3.109375 2.6875,-3.296875 2.96875,-3.296875 c 0.40625,0 0.546875,0.390625 0.546875,0.75 0,0.296875 -0.171875,1.15625 -0.40625,1.625 -0.203125,0.421875 -0.59375,0.78125 -0.96875,0.78125 -0.53125,0 -0.671875,-0.625 -0.671875,-0.6875 0,-0.015625 0.015625,-0.09375 0.03125,-0.125 z m 0,0"
               id="id-fe228e73-5646-4a30-8c3b-bd19c6c62412" />
          </symbol>
          <symbol
             overflow="visible"
             id="id-d7fb78bc-4333-4b07-b5a5-1537dc50d68d">
            <path
               style="stroke:none"
               d="m 3.21875,-3 c -0.1875,0.03125 -0.359375,0.171875 -0.359375,0.375 0,0.140625 0.09375,0.25 0.265625,0.25 0.125,0 0.375,-0.09375 0.375,-0.453125 0,-0.484375 -0.515625,-0.6875 -1.015625,-0.6875 -1.0625,0 -1.40625,0.765625 -1.40625,1.171875 0,0.078125 0,0.359375 0.296875,0.578125 0.1875,0.140625 0.328125,0.171875 0.734375,0.25 0.28125,0.0625 0.734375,0.140625 0.734375,0.546875 0,0.21875 -0.15625,0.46875 -0.375,0.625 -0.296875,0.1875 -0.6875,0.203125 -0.8125,0.203125 -0.1875,0 -0.734375,-0.03125 -0.9375,-0.359375 0.40625,-0.015625 0.46875,-0.34375 0.46875,-0.4375 0,-0.234375 -0.21875,-0.296875 -0.3125,-0.296875 -0.125,0 -0.453125,0.109375 -0.453125,0.546875 0,0.46875 0.5,0.765625 1.234375,0.765625 1.390625,0 1.6875,-0.984375 1.6875,-1.3125 0,-0.71875 -0.78125,-0.875 -1.078125,-0.921875 C 1.875,-2.234375 1.5625,-2.28125 1.5625,-2.625 c 0,-0.140625 0.140625,-0.671875 0.921875,-0.671875 0.296875,0 0.609375,0.09375 0.734375,0.296875 z m 0,0"
               id="id-0e2f54f5-6f10-4fd8-b9e9-9fdab3630acd" />
          </symbol>
          <symbol
             overflow="visible"
             id="id-8e089e5a-f181-43e7-8a60-8553778225d6">
            <path
               style="stroke:none"
               d=""
               id="id-24173f94-a86b-449b-8de2-f2ac6ef0497e" />
          </symbol>
          <symbol
             overflow="visible"
             id="id-bcdcc69f-567e-460d-a9a8-82b7121acb40">
            <path
               style="stroke:none"
               d="m 7.875,-2.75 c 0.203125,0 0.421875,0 0.421875,-0.234375 0,-0.25 -0.21875,-0.25 -0.421875,-0.25 H 1.40625 c -0.203125,0 -0.421875,0 -0.421875,0.25 0,0.234375 0.21875,0.234375 0.421875,0.234375 z m 0,0"
               id="id-0d041999-2dbe-4fac-9b58-92c31b407fb4" />
          </symbol>
          <symbol
             overflow="visible"
             id="id-774f7d1a-a36f-408b-901f-e2867210f6df">
            <path
               style="stroke:none"
               d=""
               id="id-fa204b47-aba2-40d7-8834-07ba3b4b46f1" />
          </symbol>
          <symbol
             overflow="visible"
             id="id-d838693f-a057-4f6d-9eee-0a21e0df6d37">
            <path
               style="stroke:none"
               d="m 5.5625,-1.8125 c 0.140625,0 0.3125,0 0.3125,-0.171875 0,-0.1875 -0.171875,-0.1875 -0.3125,-0.1875 H 1 c -0.125,0 -0.296875,0 -0.296875,0.1875 C 0.703125,-1.8125 0.875,-1.8125 1,-1.8125 Z m 0,0"
               id="id-7732d51c-72fb-4246-a166-3ba9ffe1d9e1" />
          </symbol>
        </g>
      </defs>
      <g
         id="id-e43173f8-8f6c-418d-86b3-95f8c6608a44"
         transform="translate(-258.966, -138.501)">
        <g
           style="fill:#000000;fill-opacity:1"
           id="id-74c8d1f2-0a58-4800-aa65-4c274c6be0bb">
          <g
             transform="translate(258.435, 154.542)"
             id="g2060">
            <path
               style="stroke:none"
               d="m 2.265625,-0.578125 c -0.71875,-0.28125 -1.125,-0.828125 -1.125,-1.71875 0,-1.640625 1.21875,-3.828125 2.6875,-4.671875 0.21875,0.203125 0.484375,0.203125 0.71875,0.203125 0.296875,0 1.015625,0 1.015625,-0.34375 0,-0.296875 -0.53125,-0.296875 -0.90625,-0.296875 -0.25,0 -0.453125,0 -0.765625,0.125 -0.0625,-0.15625 -0.09375,-0.328125 -0.09375,-0.5 0,-0.21875 0.046875,-0.375 0.046875,-0.421875 0,-0.0625 -0.0625,-0.109375 -0.125,-0.109375 -0.1875,0 -0.1875,0.4375 -0.1875,0.53125 0,0.109375 0,0.359375 0.140625,0.609375 C 2.28125,-6.453125 0.53125,-4.21875 0.53125,-1.984375 0.53125,-0.34375 1.625,0.03125 2.25,0.25 c 0.15625,0.046875 0.53125,0.1875 0.6875,0.234375 0.5,0.171875 0.953125,0.328125 0.953125,0.90625 0,0.34375 -0.25,0.8125 -0.6875,0.8125 -0.234375,0 -0.5625,-0.09375 -0.859375,-0.390625 C 2.296875,1.765625 2.265625,1.75 2.21875,1.75 c -0.109375,0 -0.125,0.09375 -0.125,0.109375 0,0.125 0.515625,0.578125 1.109375,0.578125 C 3.96875,2.4375 4.5,1.640625 4.5,1.015625 4.5,0.171875 3.796875,-0.0625 3.359375,-0.203125 Z M 4.09375,-7.09375 c 0.171875,-0.078125 0.34375,-0.078125 0.546875,-0.078125 0.375,0 0.421875,0.015625 0.65625,0.078125 C 5.15625,-7.046875 5.0625,-7 4.546875,-7 4.296875,-7 4.21875,-7 4.09375,-7.09375 Z m 0,0"
               id="id-119f7ab7-bb6a-4395-a11e-058fb0331123" />
          </g>
        </g>
        <g
           style="fill:#000000;fill-opacity:1"
           id="id-a38e0977-778f-4aa4-9869-8c2aa863eef6">
          <g
             transform="translate(264.451, 154.542)"
             id="g2064">
            <path
               style="stroke:none"
               d="m 3.890625,2.90625 c 0,-0.03125 0,-0.0625 -0.203125,-0.265625 C 2.484375,1.4375 1.8125,-0.53125 1.8125,-2.96875 c 0,-2.328125 0.5625,-4.328125 1.953125,-5.734375 0.125,-0.109375 0.125,-0.125 0.125,-0.171875 0,-0.0625 -0.0625,-0.09375 -0.109375,-0.09375 -0.15625,0 -1.140625,0.859375 -1.71875,2.03125 -0.609375,1.21875 -0.890625,2.484375 -0.890625,3.96875 0,1.0625 0.171875,2.484375 0.78125,3.75 C 2.671875,2.21875 3.640625,3 3.78125,3 3.828125,3 3.890625,2.96875 3.890625,2.90625 Z m 0,0"
               id="id-8faa8a5f-773e-4675-9304-ae2b8afa6eee" />
          </g>
        </g>
        <g
           style="fill:#000000;fill-opacity:1"
           id="id-8ef5b181-6a6b-4b28-958d-8acd758098be">
          <g
             transform="translate(269.003, 154.542)"
             id="g2068">
            <path
               style="stroke:none"
               d="m 2.71875,-2.390625 c 0.203125,0.03125 0.53125,0.109375 0.609375,0.125 0.15625,0.046875 0.6875,0.234375 0.6875,0.8125 0,0.359375 -0.328125,1.328125 -1.71875,1.328125 -0.25,0 -1.15625,-0.03125 -1.390625,-0.6875 C 1.390625,-0.75 1.625,-1.125 1.625,-1.390625 c 0,-0.25 -0.171875,-0.375 -0.40625,-0.375 -0.265625,0 -0.609375,0.203125 -0.609375,0.734375 0,0.703125 0.71875,1.15625 1.671875,1.15625 1.8125,0 2.359375,-1.34375 2.359375,-1.96875 0,-0.171875 0,-0.515625 -0.390625,-0.890625 C 3.953125,-3.03125 3.671875,-3.078125 3.03125,-3.21875 2.703125,-3.28125 2.1875,-3.390625 2.1875,-3.9375 c 0,-0.234375 0.21875,-1.09375 1.34375,-1.09375 0.515625,0 1,0.1875 1.125,0.625 -0.53125,0 -0.5625,0.453125 -0.5625,0.46875 0,0.25 0.234375,0.3125 0.34375,0.3125 0.171875,0 0.5,-0.125 0.5,-0.625 0,-0.5 -0.453125,-1.015625 -1.390625,-1.015625 -1.5625,0 -1.984375,1.21875 -1.984375,1.71875 0,0.90625 0.890625,1.09375 1.15625,1.15625 z m 0,0"
               id="id-ad7cde78-547e-44a0-9fe5-b7c437722029" />
          </g>
        </g>
        <g
           style="fill:#000000;fill-opacity:1"
           id="id-65398126-5988-42d3-ac3b-4f328e337cc0">
          <g
             transform="translate(274.517, 154.542)"
             id="g2072">
            <path
               style="stroke:none"
               d="M 3.375,-2.96875 C 3.375,-3.890625 3.25,-5.359375 2.578125,-6.75 1.875,-8.1875 0.890625,-8.96875 0.765625,-8.96875 c -0.046875,0 -0.109375,0.03125 -0.109375,0.09375 0,0.046875 0,0.0625 0.203125,0.265625 1.203125,1.203125 1.859375,3.1875 1.859375,5.625 0,2.3125 -0.5625,4.3125 -1.9375,5.71875 C 0.65625,2.84375 0.65625,2.875 0.65625,2.90625 0.65625,2.96875 0.71875,3 0.765625,3 0.921875,3 1.90625,2.140625 2.484375,0.96875 3.09375,-0.25 3.375,-1.546875 3.375,-2.96875 Z m 0,0"
               id="id-db4bacfe-544a-4ec7-8271-c4dadea60b0f" />
          </g>
        </g>
        <g
           style="fill:#000000;fill-opacity:1"
           id="id-d9dc7a72-b105-47be-8f1d-e44c67906505">
          <g
             transform="translate(282.393, 154.542)"
             id="g2076">
            <path
               style="stroke:none"
               d="m 8.0625,-3.875 c 0.171875,0 0.390625,0 0.390625,-0.21875 C 8.453125,-4.3125 8.25,-4.3125 8.0625,-4.3125 H 1.03125 c -0.171875,0 -0.390625,0 -0.390625,0.21875 0,0.21875 0.203125,0.21875 0.390625,0.21875 z m 0,2.21875 c 0.171875,0 0.390625,0 0.390625,-0.203125 C 8.453125,-2.09375 8.25,-2.09375 8.0625,-2.09375 H 1.03125 c -0.171875,0 -0.390625,0 -0.390625,0.21875 0,0.21875 0.203125,0.21875 0.390625,0.21875 z m 0,0"
               id="id-26110666-43cd-491b-bbe3-6faf1736b4b5" />
          </g>
        </g>
        <g
           style="fill:#000000;fill-opacity:1"
           id="id-2571a5e8-0b54-4042-931f-3679259a579c">
          <g
             transform="translate(294.816, 143.184)"
             id="g2080">
            <path
               style="stroke:none"
               d="M 14.59375,16.734375 V 16.09375 c -1.59375,0 -1.953125,-0.5625 -1.953125,-1.3125 V 1.953125 c 0,-0.765625 0.375,-1.3125 1.953125,-1.3125 V 0 H 0.671875 v 0.640625 c 1.59375,0 1.953125,0.546875 1.953125,1.3125 V 14.78125 c 0,0.765625 -0.375,1.3125 -1.953125,1.3125 v 0.640625 h 5.75 V 16.09375 c -1.59375,0 -1.96875,-0.5625 -1.96875,-1.3125 V 0.640625 H 10.8125 V 14.78125 c 0,0.765625 -0.390625,1.3125 -1.96875,1.3125 v 0.640625 z m 0,0"
               id="id-b02669be-9313-494b-bb15-37f2fd5af424" />
          </g>
        </g>
        <g
           style="fill:#000000;fill-opacity:1"
           id="id-a600e0fd-4381-465b-b1a4-e60e0e599583">
          <g
             transform="translate(300.323, 168.29)"
             id="g2084">
            <path
               style="stroke:none"
               d="m 0.421875,0.96875 c -0.078125,0.25 -0.09375,0.3125 -0.40625,0.3125 -0.109375,0 -0.203125,0 -0.203125,0.15625 0,0.0625 0.0625,0.109375 0.109375,0.109375 0.078125,0 0.109375,-0.03125 0.703125,-0.03125 0.5625,0 0.734375,0.03125 0.796875,0.03125 0.03125,0 0.140625,0 0.140625,-0.15625 0,-0.109375 -0.109375,-0.109375 -0.203125,-0.109375 -0.375,0 -0.375,-0.046875 -0.375,-0.125 0,-0.046875 0.140625,-0.609375 0.375,-1.546875 0.109375,0.1875 0.359375,0.46875 0.78125,0.46875 0.984375,0 2,-1.125 2,-2.28125 0,-0.796875 -0.5,-1.3125 -1.140625,-1.3125 -0.484375,0 -0.859375,0.328125 -1.09375,0.5625 -0.171875,-0.5625 -0.703125,-0.5625 -0.78125,-0.5625 -0.28125,0 -0.484375,0.1875 -0.609375,0.4375 -0.1875,0.359375 -0.28125,0.765625 -0.28125,0.78125 0,0.078125 0.0625,0.109375 0.125,0.109375 0.109375,0 0.109375,-0.03125 0.171875,-0.25 0.09375,-0.40625 0.234375,-0.859375 0.5625,-0.859375 0.203125,0 0.265625,0.1875 0.265625,0.375 0,0.078125 -0.03125,0.28125 -0.046875,0.34375 z M 1.875,-2.453125 C 1.921875,-2.59375 1.921875,-2.609375 2.046875,-2.75 2.34375,-3.109375 2.6875,-3.296875 2.96875,-3.296875 c 0.40625,0 0.546875,0.390625 0.546875,0.75 0,0.296875 -0.171875,1.15625 -0.40625,1.625 -0.203125,0.421875 -0.59375,0.78125 -0.96875,0.78125 -0.53125,0 -0.671875,-0.625 -0.671875,-0.6875 0,-0.015625 0.015625,-0.09375 0.03125,-0.125 z m 0,0"
               id="id-10c6242b-ec8e-4daa-aae0-ea56dfe5077a" />
          </g>
        </g>
        <g
           style="fill:#000000;fill-opacity:1"
           id="id-c32848ee-8c50-4ec8-b321-302fb3e889d5">
          <g
             transform="translate(329.024, 146.454)"
             id="g2088">
            <path
               style="stroke:none"
               d="m 3.4375,-7.65625 c 0,-0.28125 0,-0.296875 -0.234375,-0.296875 C 2.921875,-7.625 2.3125,-7.1875 1.09375,-7.1875 v 0.34375 c 0.265625,0 0.859375,0 1.53125,-0.296875 v 6.21875 c 0,0.4375 -0.046875,0.578125 -1.09375,0.578125 h -0.375 V 0 c 0.328125,-0.03125 1.484375,-0.03125 1.875,-0.03125 0.40625,0 1.546875,0 1.875,0.03125 v -0.34375 h -0.375 c -1.046875,0 -1.09375,-0.140625 -1.09375,-0.578125 z m 0,0"
               id="id-05a0bd37-7227-4f16-b71b-f5799f68e813" />
          </g>
        </g>
        <path
           style="fill:none;stroke:#000000;stroke-width:0.478;stroke-linecap:butt;stroke-linejoin:miter;stroke-miterlimit:10;stroke-opacity:1"
           d="M 0.00125,-0.0016875 H 37.341094"
           transform="matrix(1 0 0 -1 313.28 151.553)"
           id="id-a3e355a1-7c5f-4b94-8c23-350fc5593a51" />
        <g
           style="fill:#000000;fill-opacity:1"
           id="id-4c865134-e3df-4c5f-ae9f-610f57de6b88">
          <g
             transform="translate(313.28, 162.743)"
             id="g2093">
            <path
               style="stroke:none"
               d="m 3.4375,-7.65625 c 0,-0.28125 0,-0.296875 -0.234375,-0.296875 C 2.921875,-7.625 2.3125,-7.1875 1.09375,-7.1875 v 0.34375 c 0.265625,0 0.859375,0 1.53125,-0.296875 v 6.21875 c 0,0.4375 -0.046875,0.578125 -1.09375,0.578125 h -0.375 V 0 c 0.328125,-0.03125 1.484375,-0.03125 1.875,-0.03125 0.40625,0 1.546875,0 1.875,0.03125 v -0.34375 h -0.375 c -1.046875,0 -1.09375,-0.140625 -1.09375,-0.578125 z m 0,0"
               id="id-37cd6bce-ec76-41a1-867d-6582e612e7a3" />
          </g>
        </g>
        <g
           style="fill:#000000;fill-opacity:1"
           id="id-b451758f-f0a8-4d68-8a25-54c02318dda4">
          <g
             transform="translate(321.79, 162.743)"
             id="g2097">
            <path
               style="stroke:none"
               d="m 7.875,-2.75 c 0.203125,0 0.421875,0 0.421875,-0.234375 0,-0.25 -0.21875,-0.25 -0.421875,-0.25 H 1.40625 c -0.203125,0 -0.421875,0 -0.421875,0.25 0,0.234375 0.21875,0.234375 0.421875,0.234375 z m 0,0"
               id="id-d4e9d1a7-0bb4-4bae-b19b-50a788ec3d96" />
          </g>
        </g>
        <g
           style="fill:#000000;fill-opacity:1"
           id="id-2c103397-f08c-4c3c-9ff4-c1418dd74fdc">
          <g
             transform="translate(333.745, 162.743)"
             id="g2101">
            <path
               style="stroke:none"
               d="M 0.515625,1.515625 C 0.4375,1.875 0.375,1.96875 -0.109375,1.96875 c -0.140625,0 -0.265625,0 -0.265625,0.234375 0,0.015625 0.015625,0.109375 0.140625,0.109375 0.15625,0 0.328125,-0.015625 0.484375,-0.015625 h 0.515625 c 0.25,0 0.859375,0.015625 1.109375,0.015625 0.078125,0 0.21875,0 0.21875,-0.203125 C 2.09375,1.96875 2.015625,1.96875 1.8125,1.96875 1.25,1.96875 1.21875,1.890625 1.21875,1.796875 1.21875,1.65625 1.75,-0.40625 1.828125,-0.6875 c 0.125,0.34375 0.453125,0.8125 1.078125,0.8125 1.34375,0 2.8125,-1.765625 2.8125,-3.515625 0,-1.109375 -0.625,-1.875 -1.515625,-1.875 -0.765625,0 -1.421875,0.734375 -1.546875,0.90625 -0.09375,-0.59375 -0.5625,-0.90625 -1.046875,-0.90625 -0.34375,0 -0.625,0.15625 -0.84375,0.609375 C 0.546875,-4.21875 0.375,-3.484375 0.375,-3.4375 c 0,0.046875 0.0625,0.109375 0.140625,0.109375 0.09375,0 0.109375,-0.015625 0.171875,-0.296875 0.1875,-0.703125 0.40625,-1.40625 0.890625,-1.40625 0.28125,0 0.375,0.1875 0.375,0.546875 0,0.28125 -0.046875,0.40625 -0.09375,0.625 z m 2.0625,-5.25 C 2.671875,-4.0625 3,-4.40625 3.1875,-4.578125 c 0.140625,-0.125 0.53125,-0.453125 0.984375,-0.453125 0.53125,0 0.765625,0.53125 0.765625,1.140625 0,0.578125 -0.328125,1.9375 -0.640625,2.546875 C 4,-0.6875 3.453125,-0.125 2.90625,-0.125 c -0.8125,0 -0.953125,-1.015625 -0.953125,-1.0625 0,-0.046875 0.03125,-0.140625 0.046875,-0.203125 z m 0,0"
               id="id-5bee8958-e85d-4478-ab5f-e15d6fd65759" />
          </g>
        </g>
        <g
           style="fill:#000000;fill-opacity:1"
           id="id-f262bae8-0c20-40f1-9879-855d074b6f34">
          <g
             transform="translate(339.62, 159.289)"
             id="g2105">
            <path
               style="stroke:none"
               d="m 5.5625,-1.8125 c 0.140625,0 0.3125,0 0.3125,-0.171875 0,-0.1875 -0.171875,-0.1875 -0.3125,-0.1875 H 1 c -0.125,0 -0.296875,0 -0.296875,0.1875 C 0.703125,-1.8125 0.875,-1.8125 1,-1.8125 Z m 0,0"
               id="id-e4a49a26-ed7a-4d91-95bf-3a5e47ac861b" />
          </g>
        </g>
        <g
           style="fill:#000000;fill-opacity:1"
           id="id-d2fc4204-3135-4447-a89e-32d8fe36e575">
          <g
             transform="translate(346.207, 159.289)"
             id="g2109">
            <path
               style="stroke:none"
               d="m 3.21875,-3 c -0.1875,0.03125 -0.359375,0.171875 -0.359375,0.375 0,0.140625 0.09375,0.25 0.265625,0.25 0.125,0 0.375,-0.09375 0.375,-0.453125 0,-0.484375 -0.515625,-0.6875 -1.015625,-0.6875 -1.0625,0 -1.40625,0.765625 -1.40625,1.171875 0,0.078125 0,0.359375 0.296875,0.578125 0.1875,0.140625 0.328125,0.171875 0.734375,0.25 0.28125,0.0625 0.734375,0.140625 0.734375,0.546875 0,0.21875 -0.15625,0.46875 -0.375,0.625 -0.296875,0.1875 -0.6875,0.203125 -0.8125,0.203125 -0.1875,0 -0.734375,-0.03125 -0.9375,-0.359375 0.40625,-0.015625 0.46875,-0.34375 0.46875,-0.4375 0,-0.234375 -0.21875,-0.296875 -0.3125,-0.296875 -0.125,0 -0.453125,0.109375 -0.453125,0.546875 0,0.46875 0.5,0.765625 1.234375,0.765625 1.390625,0 1.6875,-0.984375 1.6875,-1.3125 0,-0.71875 -0.78125,-0.875 -1.078125,-0.921875 C 1.875,-2.234375 1.5625,-2.28125 1.5625,-2.625 c 0,-0.140625 0.140625,-0.671875 0.921875,-0.671875 0.296875,0 0.609375,0.09375 0.734375,0.296875 z m 0,0"
               id="id-21a05eaf-4e2f-4b0e-9f0d-635002e9cc90" />
          </g>
        </g>
      </g>
    </g>
  </g>
</svg>
